<?xml version="1.0" encoding="utf-8"?>
<!-- Generator: Adobe Illustrator 22.0.0, SVG Export Plug-In . SVG Version: 6.00 Build 0)  -->
<svg version="1.1" xmlns="http://www.w3.org/2000/svg" xmlns:xlink="http://www.w3.org/1999/xlink" x="0px" y="0px"
	 viewBox="0 0 256 256" style="enable-background:new 0 0 256 256;" xml:space="preserve">
<style type="text/css">
	.st0{display:none;}
	.st1{display:inline;}
	.st2{fill:none;stroke:#6B1D1D;stroke-width:0.5;stroke-miterlimit:10;}
	.st3{fill:#3A312A;}
	.st4{fill:#87796F;}
	.st5{fill:#D5DE58;}
	.st6{fill:#695B51;}
	.st7{fill:#FCE8CB;}
	.st8{fill:#F16C7A;}
	.st9{fill:#8AC6DD;}
	.st10{fill:#DECAAD;}
	.st11{fill:#D6DF58;}
	.st12{fill-rule:evenodd;clip-rule:evenodd;fill:#FCE8CB;}
	.st13{fill:#F5978A;}
	.st14{fill:#D7E057;}
	.st15{fill-rule:evenodd;clip-rule:evenodd;fill:#87796F;}
	.st16{fill:#6CA8BF;}
	.st17{fill:#B9C239;}
	.st18{fill:#D34E5C;}
	.st19{fill:#FAE6CA;}
	.st20{fill:#F8E4C8;}
	.st21{fill:#8AC5DC;}
	.st22{fill:#EF6D7A;}
	.st23{fill:#EB6E7A;}
	.st24{fill:#89C4DB;}
	.st25{fill-rule:evenodd;clip-rule:evenodd;fill:#F16C7A;}
	.st26{fill:#F7E3C7;}
	.st27{fill:#F6E2C6;}
	.st28{fill:#ED6E7A;}
	.st29{fill:#8AC3DA;}
	.st30{fill:#D5DC57;}
	.st31{fill-rule:evenodd;clip-rule:evenodd;fill:#D7E057;}
	.st32{fill-rule:evenodd;clip-rule:evenodd;fill:#F8E4C8;}
	.st33{fill:#D4DB56;}
	.st34{fill:#F59689;}
	.st35{fill:#DDC9AC;}
	.st36{fill:#D24E5C;}
	.st37{fill:#6A5C52;}
	.st38{fill:#6CA6BE;}
	.st39{fill:#B8C136;}
	.st40{fill-rule:evenodd;clip-rule:evenodd;fill:#FAE6CA;}
</style>
<g id="Layer_2" class="st0">
	<g class="st1">
		<g>
			<line class="st2" x1="0" y1="4.829" x2="256" y2="4.829"/>
			<line class="st2" x1="0" y1="16.56" x2="256" y2="16.56"/>
			<line class="st2" x1="0" y1="28.29" x2="256" y2="28.29"/>
			<line class="st2" x1="0" y1="40.021" x2="256" y2="40.021"/>
			<line class="st2" x1="0" y1="51.751" x2="256" y2="51.751"/>
			<line class="st2" x1="0" y1="63.482" x2="256" y2="63.482"/>
			<line class="st2" x1="0" y1="75.213" x2="256" y2="75.213"/>
			<line class="st2" x1="0" y1="86.943" x2="256" y2="86.943"/>
			<line class="st2" x1="0" y1="98.674" x2="256" y2="98.674"/>
			<line class="st2" x1="0" y1="110.404" x2="256" y2="110.404"/>
			<line class="st2" x1="0" y1="122.135" x2="256" y2="122.135"/>
			<line class="st2" x1="0" y1="133.865" x2="256" y2="133.865"/>
			<line class="st2" x1="0" y1="145.596" x2="256" y2="145.596"/>
			<line class="st2" x1="0" y1="157.326" x2="256" y2="157.326"/>
			<line class="st2" x1="0" y1="169.057" x2="256" y2="169.057"/>
			<line class="st2" x1="0" y1="180.788" x2="256" y2="180.788"/>
			<line class="st2" x1="0" y1="192.518" x2="256" y2="192.518"/>
			<line class="st2" x1="0" y1="204.249" x2="256" y2="204.249"/>
			<line class="st2" x1="0" y1="215.979" x2="256" y2="215.979"/>
			<line class="st2" x1="0" y1="227.71" x2="256" y2="227.71"/>
			<line class="st2" x1="0" y1="239.44" x2="256" y2="239.44"/>
			<line class="st2" x1="0" y1="251.171" x2="256" y2="251.171"/>
		</g>
		<g>
			<line class="st2" x1="251.171" y1="0" x2="251.171" y2="256"/>
			<line class="st2" x1="239.44" y1="0" x2="239.44" y2="256"/>
			<line class="st2" x1="227.71" y1="0" x2="227.71" y2="256"/>
			<line class="st2" x1="215.979" y1="0" x2="215.979" y2="256"/>
			<line class="st2" x1="204.249" y1="0" x2="204.249" y2="256"/>
			<line class="st2" x1="192.518" y1="0" x2="192.518" y2="256"/>
			<line class="st2" x1="180.788" y1="0" x2="180.788" y2="256"/>
			<line class="st2" x1="169.057" y1="0" x2="169.057" y2="256"/>
			<line class="st2" x1="157.326" y1="0" x2="157.326" y2="256"/>
			<line class="st2" x1="145.596" y1="0" x2="145.596" y2="256"/>
			<line class="st2" x1="133.865" y1="0" x2="133.865" y2="256"/>
			<line class="st2" x1="122.135" y1="0" x2="122.135" y2="256"/>
			<line class="st2" x1="110.404" y1="0" x2="110.404" y2="256"/>
			<line class="st2" x1="98.674" y1="0" x2="98.674" y2="256"/>
			<line class="st2" x1="86.943" y1="0" x2="86.943" y2="256"/>
			<line class="st2" x1="75.213" y1="0" x2="75.213" y2="256"/>
			<line class="st2" x1="63.482" y1="0" x2="63.482" y2="256"/>
			<line class="st2" x1="51.751" y1="0" x2="51.751" y2="256"/>
			<line class="st2" x1="40.021" y1="0" x2="40.021" y2="256"/>
			<line class="st2" x1="28.29" y1="0" x2="28.29" y2="256"/>
			<line class="st2" x1="16.56" y1="0" x2="16.56" y2="256"/>
			<line class="st2" x1="4.829" y1="0" x2="4.829" y2="256"/>
		</g>
	</g>
</g>
<g id="Layer_1">
	<g>
		<path class="st5" d="M47.133,26.323c0,0,3.408,12.659,13.222,13.246c0,0-13.1,4.525-13.321,14.202c0,0-2.579-13.572-12.925-14.059
			C34.108,39.713,46.159,37.887,47.133,26.323z"/>
		<path class="st3" d="M47.032,55.271c-0.713,0-1.335-0.506-1.472-1.218c-0.024-0.124-2.494-12.417-11.522-12.843
			c-0.77-0.036-1.387-0.65-1.427-1.421c-0.04-0.77,0.511-1.444,1.273-1.561c0.441-0.068,10.894-1.816,11.754-12.032
			c0.061-0.726,0.634-1.301,1.359-1.367c0.721-0.064,1.392,0.398,1.583,1.102c0.032,0.116,3.259,11.626,11.864,12.142
			c0.714,0.043,1.297,0.584,1.396,1.292c0.098,0.708-0.319,1.388-0.994,1.622c-0.121,0.042-12.118,4.311-12.313,12.819
			c-0.018,0.767-0.61,1.396-1.375,1.46C47.116,55.27,47.074,55.271,47.032,55.271z M39.292,39.542
			c3.878,1.969,6.23,5.746,7.586,8.876c2.027-4.021,5.942-6.787,8.949-8.427c-4.134-1.842-6.783-5.651-8.334-8.723
			C45.7,35.629,42.222,38.137,39.292,39.542z"/>
		<path class="st5" d="M25.434,43.304c0,0,2.411,8.954,9.352,9.369c0,0-9.266,3.201-9.422,10.045c0,0-1.824-9.6-9.142-9.944
			C16.222,52.775,24.745,51.483,25.434,43.304z"/>
		<path class="st3" d="M25.362,64.219c-0.713,0-1.337-0.508-1.472-1.22c-0.016-0.082-1.704-8.442-7.739-8.727
			c-0.77-0.036-1.387-0.65-1.427-1.421c-0.04-0.77,0.511-1.444,1.273-1.561c0.296-0.047,7.364-1.242,7.942-8.113
			c0.061-0.726,0.635-1.303,1.36-1.368c0.731-0.069,1.392,0.399,1.582,1.101l0,0c0.021,0.079,2.228,7.92,7.994,8.266
			c0.714,0.043,1.299,0.584,1.396,1.293c0.098,0.709-0.32,1.389-0.996,1.622c-0.081,0.028-8.282,2.952-8.413,8.661
			c-0.018,0.768-0.611,1.397-1.376,1.461C25.445,64.217,25.404,64.219,25.362,64.219z M20.844,52.691
			c2.107,1.332,3.524,3.394,4.447,5.279c1.376-2.232,3.515-3.871,5.365-4.972c-2.287-1.27-3.884-3.351-4.941-5.225
			C24.541,50.062,22.7,51.65,20.844,52.691z"/>
		<path class="st5" d="M25.434,16.646c0,0,2.411,8.954,9.352,9.37c0,0-9.266,3.201-9.422,10.045c0,0-1.824-9.6-9.142-9.944
			C16.222,26.117,24.745,24.826,25.434,16.646z"/>
		<path class="st3" d="M25.362,37.562c-0.713,0-1.337-0.508-1.472-1.22c-0.016-0.082-1.704-8.442-7.739-8.727
			c-0.77-0.036-1.387-0.65-1.427-1.421c-0.04-0.769,0.511-1.444,1.273-1.56c0.296-0.047,7.364-1.242,7.942-8.113
			c0.061-0.726,0.635-1.303,1.36-1.368c0.731-0.062,1.392,0.399,1.582,1.102l0,0c0.021,0.079,2.228,7.92,7.994,8.265
			c0.715,0.042,1.299,0.584,1.396,1.293c0.098,0.709-0.319,1.388-0.996,1.622c-0.081,0.028-8.282,2.953-8.413,8.662
			c-0.018,0.768-0.611,1.397-1.376,1.461C25.445,37.56,25.404,37.562,25.362,37.562z M20.844,26.034
			c2.107,1.332,3.524,3.393,4.447,5.279c1.376-2.232,3.515-3.872,5.365-4.973c-2.287-1.268-3.884-3.35-4.941-5.224
			C24.541,23.404,22.7,24.993,20.844,26.034z"/>
		<path class="st28" d="M185.935,74.88H33.878c-9.44,0-17.1,7.65-17.1,17.1v130.29c0,9.45,7.66,17.11,17.1,17.11h188.79
			c9.45,0,17.11-7.66,17.11-17.11V91.98c0-9.45-7.66-17.1-17.11-17.1h-23.937 M149.298,96.31h-42.6c-1.61,0-3.07-0.65-4.13-1.71
			c-1.05-1.06-1.71-2.52-1.71-4.13c0-3.23,2.62-5.84,5.84-5.84h42.6c1.61,0,3.07,0.65,4.13,1.71c1.05,1.06,1.71,2.52,1.71,4.13
			C155.138,93.69,152.518,96.31,149.298,96.31z"/>
		<path class="st3" d="M222.669,240.88H33.878c-10.256,0-18.6-8.349-18.6-18.61V91.98c0-10.257,8.344-18.601,18.6-18.601h152.056
			c0.829,0,1.5,0.672,1.5,1.5c0,0.828-0.671,1.5-1.5,1.5H33.878c-8.602,0-15.6,6.998-15.6,15.601V222.27
			c0,8.607,6.998,15.61,15.6,15.61h188.79c8.607,0,15.61-7.003,15.61-15.61V91.98c0-8.603-7.002-15.601-15.61-15.601h-23.937
			c-0.829,0-1.5-0.672-1.5-1.5c0-0.828,0.671-1.5,1.5-1.5h23.937c10.262,0,18.61,8.344,18.61,18.601V222.27
			C241.278,232.531,232.93,240.88,222.669,240.88z M149.298,97.811h-42.6c-1.96,0-3.804-0.764-5.19-2.149
			c-1.388-1.402-2.149-3.244-2.149-5.191c0-4.047,3.293-7.34,7.34-7.34h42.6c1.961,0,3.804,0.764,5.191,2.149
			c1.388,1.399,2.149,3.241,2.149,5.19C156.638,94.518,153.346,97.811,149.298,97.811z M106.698,86.13
			c-2.393,0-4.34,1.947-4.34,4.34c0,1.152,0.453,2.244,1.276,3.075c0.814,0.814,1.904,1.266,3.064,1.266h42.6
			c2.393,0,4.34-1.947,4.34-4.341c0-1.152-0.453-2.244-1.275-3.074c-0.815-0.814-1.905-1.266-3.064-1.266H106.698z"/>
		<path class="st20" d="M82.31,224.286h31.298v-15.095c0-9.2-7.457-16.656-16.657-16.656H85.947v-7.152
			c-3.044,2.11-6.193,3.355-9.25,3.355c-2.932,0-6.025-1.257-9.057-3.393h-0.187v7.19H56.442c-9.2,0-16.657,7.457-16.657,16.656
			v15.095h29.947H82.31z"/>
		<path class="st3" d="M113.608,225.786H82.31c-0.829,0-1.5-0.672-1.5-1.5c0-0.828,0.671-1.5,1.5-1.5h29.798v-13.594
			c0-8.357-6.799-15.157-15.157-15.157H85.946c-0.829,0-1.5-0.672-1.5-1.5v-4.463c-2.65,1.438-5.248,2.166-7.749,2.166
			c-2.467,0-5.063-0.767-7.743-2.282v4.579c0,0.828-0.671,1.5-1.5,1.5H56.442c-8.357,0-15.157,6.8-15.157,15.157v13.594h28.447
			c0.829,0,1.5,0.672,1.5,1.5c0,0.828-0.671,1.5-1.5,1.5H39.785c-0.829,0-1.5-0.672-1.5-1.5v-15.094
			c0-10.012,8.145-18.157,18.157-18.157h9.512v-5.689c0-0.828,0.671-1.5,1.5-1.5h0.187c0.309,0,0.611,0.096,0.864,0.273
			c2.938,2.07,5.694,3.119,8.193,3.119c2.615,0,5.439-1.039,8.395-3.088c0.458-0.318,1.057-0.355,1.55-0.097
			c0.494,0.259,0.804,0.771,0.804,1.329v5.652h9.505c10.012,0,18.157,8.145,18.157,18.157v15.094
			C115.108,225.114,114.437,225.786,113.608,225.786z"/>
		<path class="st24" d="M82.31,224.288h31.298v-15.1c0-9.2-7.457-16.657-16.657-16.657h-2.633l0.068,0.05L82.94,207.762
			l-5.907-4.451l-5.907,4.451L59.679,192.58l0.068-0.05h-3.305c-9.2,0-16.657,7.457-16.657,16.657v15.1h29.947H82.31z"/>
		<path class="st3" d="M113.608,225.788H82.31c-0.829,0-1.5-0.672-1.5-1.5s0.671-1.5,1.5-1.5h29.798v-13.601
			c0-8.357-6.799-15.157-15.157-15.157h-1.779l-11.034,14.635c-0.499,0.661-1.44,0.792-2.1,0.295l-5.005-3.771l-5.005,3.771
			c-0.66,0.497-1.601,0.366-2.1-0.295L58.894,194.03h-2.452c-8.357,0-15.157,6.8-15.157,15.157v13.601h28.447
			c0.829,0,1.5,0.672,1.5,1.5s-0.671,1.5-1.5,1.5H39.786c-0.829,0-1.5-0.672-1.5-1.5v-15.101c0-10.012,8.145-18.157,18.157-18.157
			h3.305c0.649,0,1.225,0.418,1.426,1.035c0.001,0.003,0.002,0.006,0.003,0.009l10.244,13.587l4.71-3.548
			c0.534-0.402,1.271-0.402,1.805,0l4.71,3.548l10.329-13.699c0.23-0.549,0.741-0.932,1.344-0.932h2.633
			c10.012,0,18.157,8.145,18.157,18.157v15.101C115.108,225.116,114.437,225.788,113.608,225.788z"/>
		<path class="st32" d="M54.649,151.244c0,3.62-2.934,6.554-6.554,6.554c-3.62,0-6.554-2.934-6.554-6.554
			c0-3.62,2.934-6.554,6.554-6.554C51.715,144.69,54.649,147.624,54.649,151.244z"/>
		<path class="st3" d="M48.095,159.298c-4.441,0-8.054-3.613-8.054-8.054c0-4.441,3.613-8.055,8.054-8.055s8.054,3.613,8.054,8.055
			C56.149,155.685,52.536,159.298,48.095,159.298z M48.095,146.189c-2.787,0-5.054,2.268-5.054,5.055
			c0,2.787,2.267,5.054,5.054,5.054c2.787,0,5.054-2.267,5.054-5.054C53.149,148.457,50.882,146.189,48.095,146.189z"/>
		<path class="st32" d="M111.855,151.244c0,3.62-2.934,6.554-6.554,6.554c-3.62,0-6.554-2.934-6.554-6.554
			c0-3.62,2.934-6.554,6.554-6.554C108.92,144.69,111.855,147.624,111.855,151.244z"/>
		<path class="st3" d="M105.301,159.298c-4.441,0-8.054-3.613-8.054-8.054c0-4.441,3.613-8.055,8.054-8.055
			c4.441,0,8.054,3.613,8.054,8.055C113.354,155.685,109.742,159.298,105.301,159.298z M105.301,146.189
			c-2.787,0-5.054,2.268-5.054,5.055c0,2.787,2.267,5.054,5.054,5.054c2.787,0,5.054-2.267,5.054-5.054
			C110.354,148.457,108.087,146.189,105.301,146.189z"/>
		<path class="st20" d="M105.753,148.063c0,16.046-15.454,40.677-29.055,40.677c-12.982,0-29.055-24.63-29.055-40.677
			c0-16.047,13.008-29.055,29.055-29.055C92.744,119.008,105.753,132.016,105.753,148.063z"/>
		<path class="st3" d="M76.698,190.239c-6.538,0-14.057-5.456-20.63-14.968c-6.122-8.859-9.925-19.285-9.925-27.209
			c0-16.848,13.707-30.555,30.555-30.555c16.848,0,30.555,13.707,30.555,30.555C107.253,165.1,91.158,190.239,76.698,190.239z
			 M76.698,120.508c-15.194,0-27.555,12.361-27.555,27.555c0,14.887,15.394,39.177,27.555,39.177
			c12.51,0,27.555-24.062,27.555-39.177C104.253,132.869,91.892,120.508,76.698,120.508z"/>
		<path class="st3" d="M69.276,147.734c0,1.566-1.27,2.836-2.836,2.836c-1.566,0-2.836-1.27-2.836-2.836
			c0-1.566,1.27-2.836,2.836-2.836C68.006,144.899,69.276,146.168,69.276,147.734z"/>
		<path class="st3" d="M89.792,147.734c0,1.566-1.27,2.836-2.836,2.836c-1.566,0-2.836-1.27-2.836-2.836
			c0-1.566,1.27-2.836,2.836-2.836C88.522,144.899,89.792,146.168,89.792,147.734z"/>
		<path class="st34" d="M65.657,156.166c0,2.017-2.187,3.652-4.885,3.652c-2.698,0-4.885-1.635-4.885-3.652
			c0-2.017,2.187-3.652,4.885-3.652C63.47,152.514,65.657,154.149,65.657,156.166z"/>
		<path class="st34" d="M97.509,156.166c0,2.017-2.187,3.652-4.885,3.652c-2.698,0-4.885-1.635-4.885-3.652
			c0-2.017,2.187-3.652,4.885-3.652C95.322,152.514,97.509,154.149,97.509,156.166z"/>
		<path class="st4" d="M77.033,112.595c-16.609,0-30.073,12.873-30.073,28.752c0,1.68,0.304,2.933,0.869,4.497
			c0.266,0.738,4.573-1.618,4.939-1.876c1.833-1.291,3.332-3.041,4.452-4.975c0.463-0.804,0.849-1.623,1.16-2.441
			c0.991-2.612,3.684-9.879,6.419-9.309c3.667,0.764,7.824,1.196,12.233,1.196c4.409,0,8.566-0.432,12.234-1.196
			c2.734-0.57,5.428,6.697,6.419,9.309c0.311,0.819,0.697,1.637,1.16,2.442c1.85,3.2,4.975,6.247,8.776,6.801
			c0.009-0.184,0.241-0.246,0.414-0.309c1.244-0.452,1.07-3.141,1.07-4.139C107.106,125.468,93.642,112.595,77.033,112.595z"/>
		<path class="st3" d="M48.057,147.47c-0.199,0-0.38-0.023-0.54-0.074c-0.518-0.163-0.918-0.542-1.098-1.041
			c-0.575-1.593-0.958-3.055-0.958-5.008c0-16.681,14.164-30.252,31.573-30.252c17.409,0,31.573,13.571,31.573,30.252l0.003,0.315
			c0.022,1.52,0.063,4.316-1.906,5.171c-0.04,0.043-0.083,0.082-0.129,0.12c-0.326,0.268-0.748,0.389-1.168,0.325
			c-3.763-0.548-7.448-3.364-9.859-7.534c-0.496-0.862-0.92-1.757-1.263-2.66l-0.062-0.163c-3.058-8.07-4.49-8.221-4.648-8.211
			c-3.909,0.815-8.127,1.229-12.54,1.229c-4.413,0-8.632-0.413-12.54-1.228c-0.003-0.001-0.006-0.001-0.011-0.001
			c-0.201,0-1.641,0.302-4.638,8.21l-0.062,0.164c-0.343,0.904-0.768,1.799-1.263,2.658c-1.286,2.222-2.976,4.106-4.888,5.453
			C53.595,145.222,50.02,147.47,48.057,147.47z M105.883,145.541l0.547,1.396c0.035-0.014,0.072-0.032,0.111-0.057L105.883,145.541z
			 M107.12,145.873L107.12,145.873L107.12,145.873z M77.033,114.095c-15.755,0-28.573,12.226-28.573,27.252
			c0,1.105,0.149,1.981,0.418,2.898c1.042-0.419,2.635-1.249,3.045-1.515c1.542-1.086,2.931-2.643,3.999-4.488
			c0.413-0.718,0.769-1.467,1.056-2.223l0.062-0.163c2.146-5.663,4.608-10.795,8.066-10.083c3.707,0.773,7.72,1.165,11.927,1.165
			c4.207,0,8.22-0.392,11.927-1.165c3.454-0.711,5.92,4.421,8.066,10.084l0.062,0.162c0.287,0.755,0.643,1.504,1.058,2.226
			c1.815,3.14,4.426,5.32,7.082,5.948c0.051-0.023,0.104-0.047,0.159-0.068c0.166-0.321,0.241-1.134,0.222-2.419l-0.004-0.359
			C105.606,126.32,92.788,114.095,77.033,114.095z"/>
		
			<rect x="64.656" y="188.428" transform="matrix(0.7986 -0.6019 0.6019 0.7986 -105.3596 81.0131)" class="st4" width="7.428" height="19.013"/>
		<path class="st3" d="M71.126,209.262c-0.069,0-0.139-0.005-0.209-0.015c-0.394-0.056-0.75-0.265-0.989-0.583L58.484,193.48
			c-0.499-0.661-0.367-1.602,0.295-2.101l5.932-4.471c0.317-0.24,0.718-0.342,1.111-0.287c0.394,0.056,0.75,0.265,0.989,0.583
			l11.443,15.184c0.499,0.661,0.367,1.602-0.295,2.101l-5.932,4.471C71.767,209.157,71.449,209.262,71.126,209.262z M61.783,192.873
			l9.638,12.788l3.536-2.665l-9.638-12.788L61.783,192.873z"/>
		
			<rect x="81.983" y="188.428" transform="matrix(-0.7986 -0.6019 0.6019 -0.7986 35.0046 407.5826)" class="st4" width="7.428" height="19.013"/>
		<path class="st3" d="M82.94,209.262c-0.314,0-0.631-0.099-0.902-0.302l-5.932-4.471c-0.318-0.24-0.527-0.596-0.583-0.989
			c-0.055-0.395,0.048-0.794,0.288-1.111l11.443-15.184c0.499-0.662,1.438-0.793,2.101-0.296l5.932,4.471
			c0.318,0.24,0.527,0.596,0.582,0.989c0.055,0.395-0.048,0.794-0.288,1.111l-11.443,15.184
			C83.844,209.056,83.395,209.262,82.94,209.262z M79.109,202.996l3.537,2.665l9.638-12.788l-3.537-2.665L79.109,202.996z"/>
		<path class="st3" d="M53.613,225.788c-0.829,0-1.5-0.672-1.5-1.5v-11.931c0-0.828,0.671-1.5,1.5-1.5c0.829,0,1.5,0.672,1.5,1.5
			v11.931C55.113,225.116,54.442,225.788,53.613,225.788z"/>
		<path class="st3" d="M100.453,225.788c-0.829,0-1.5-0.672-1.5-1.5v-11.931c0-0.828,0.671-1.5,1.5-1.5s1.5,0.672,1.5,1.5v11.931
			C101.953,225.116,101.281,225.788,100.453,225.788z"/>
		<path class="st4" d="M52.119,118.237c4.932,6.21,10.832,12.831,17.957,14.857c11.477,3.263,31.79-0.808,31.79-17.326
			c0-10.563-8.854-23.33-25.377-13.609c-20.481,12.049-32.369-11.113-32.369-0.55c0,3.339,1.345,6.669,3.111,9.699L52.119,118.237z"
			/>
		<path class="st3" d="M78.1,135.626c-3.054,0-5.96-0.386-8.434-1.089c-7.399-2.104-13.371-8.629-18.722-15.367
			c-0.018-0.022-0.035-0.045-0.051-0.068l-4.888-6.93c-0.025-0.035-0.048-0.071-0.07-0.109c-2.23-3.826-3.315-7.246-3.315-10.453
			c0-1.46,0.177-3.236,1.556-4.017c1.624-0.919,3.419,0.156,6.136,1.785c5.176,3.104,13.839,8.301,25.417,1.488
			c8.986-5.285,15.244-3.896,18.911-1.799c6.028,3.447,8.727,10.872,8.728,16.701c0,5.919-2.475,10.916-7.156,14.453
			C91.183,134.019,84.334,135.626,78.1,135.626z M53.321,117.338c5.032,6.333,10.595,12.445,17.166,14.314
			c6.642,1.887,17.278,1.189,23.916-3.825c3.958-2.989,5.964-7.046,5.964-12.059c0-4.963-2.232-11.246-7.217-14.097
			c-4.271-2.441-9.769-1.826-15.9,1.78c-13.117,7.715-23.111,1.72-28.482-1.502c-1.079-0.646-2.385-1.431-3.042-1.634
			c-0.05,0.221-0.106,0.617-0.106,1.293c0,2.647,0.94,5.555,2.874,8.888L53.321,117.338z"/>
		<path class="st3" d="M76.697,173.13c-4.377,0-7.534-1.969-9.383-5.853c-0.356-0.748-0.038-1.643,0.709-1.999
			c0.75-0.354,1.644-0.038,2,0.71c1.345,2.825,3.466,4.142,6.674,4.142c3.754,0,6.018-2.406,6.623-4.023
			c0.291-0.776,1.155-1.171,1.931-0.878c0.776,0.29,1.169,1.154,0.879,1.931C85.053,170.034,81.642,173.13,76.697,173.13z"/>
		<path class="st30" d="M210.945,141.788h-69.359c-3.214,0-5.82-2.606-5.82-5.82v-15.359c0-3.215,2.606-5.82,5.82-5.82h69.359
			c3.214,0,5.82,2.606,5.82,5.82v15.359C216.765,139.182,214.159,141.788,210.945,141.788z"/>
		<path class="st3" d="M210.944,143.288h-69.359c-4.037,0-7.32-3.284-7.32-7.32v-15.359c0-4.036,3.284-7.32,7.32-7.32h69.359
			c4.037,0,7.32,3.284,7.32,7.32v15.359C218.265,140.004,214.981,143.288,210.944,143.288z M141.585,116.288
			c-2.382,0-4.32,1.938-4.32,4.32v15.359c0,2.382,1.938,4.32,4.32,4.32h69.359c2.382,0,4.32-1.939,4.32-4.32v-15.359
			c0-2.382-1.938-4.32-4.32-4.32H141.585z"/>
		<path class="st3" d="M216.765,163.955h-81c-0.829,0-1.5-0.672-1.5-1.5c0-0.828,0.671-1.5,1.5-1.5h81c0.829,0,1.5,0.672,1.5,1.5
			C218.265,163.283,217.593,163.955,216.765,163.955z"/>
		<path class="st3" d="M216.765,182.455h-81c-0.829,0-1.5-0.672-1.5-1.5c0-0.828,0.671-1.5,1.5-1.5h81c0.829,0,1.5,0.672,1.5,1.5
			C218.265,181.783,217.593,182.455,216.765,182.455z"/>
		<path class="st3" d="M216.765,200.955h-81c-0.829,0-1.5-0.672-1.5-1.5c0-0.828,0.671-1.5,1.5-1.5h81c0.829,0,1.5,0.672,1.5,1.5
			C218.265,200.283,217.593,200.955,216.765,200.955z"/>
		<path class="st3" d="M216.765,219.455h-81c-0.829,0-1.5-0.672-1.5-1.5c0-0.828,0.671-1.5,1.5-1.5h81c0.829,0,1.5,0.672,1.5,1.5
			C218.265,218.783,217.593,219.455,216.765,219.455z"/>
		<path class="st4" d="M137.808,20.59c-2.45-2.45-5.82-3.97-9.53-3.97c-7.43,0-13.5,6.08-13.5,13.5V79c0,7.43,6.07,13.5,13.5,13.5
			c7.42,0,13.5-6.07,13.5-13.5V30.12C141.778,26.41,140.258,23.04,137.808,20.59z M128.278,38.67c-3.8,0-6.88-3.08-6.88-6.88
			c0-3.8,3.08-6.88,6.88-6.88c3.8,0,6.88,3.08,6.88,6.88C135.158,35.59,132.078,38.67,128.278,38.67z"/>
		<path class="st3" d="M128.278,94c-8.271,0-15-6.729-15-15V30.12c0-8.271,6.729-15,15-15c3.986,0,7.748,1.565,10.591,4.409l0,0
			c2.843,2.844,4.409,6.604,4.409,10.591V79C143.278,87.271,136.549,94,128.278,94z M128.278,18.12c-6.617,0-12,5.383-12,12V79
			c0,6.617,5.383,12,12,12c6.617,0,12-5.383,12-12V30.12c0-3.185-1.254-6.192-3.53-8.47C134.471,19.374,131.463,18.12,128.278,18.12
			z M128.278,40.17c-4.621,0-8.38-3.759-8.38-8.38s3.759-8.38,8.38-8.38c4.621,0,8.38,3.759,8.38,8.38S132.899,40.17,128.278,40.17z
			 M128.278,26.41c-2.966,0-5.38,2.413-5.38,5.38s2.414,5.38,5.38,5.38c2.966,0,5.38-2.413,5.38-5.38S131.245,26.41,128.278,26.41z"
			/>
		<path class="st18" d="M222.67,76.38h-15c8.61,0,15.61,7,15.61,15.6v130.29c0,8.61-7,15.61-15.61,15.61h15
			c8.61,0,15.61-7,15.61-15.61V91.98C238.28,83.38,231.28,76.38,222.67,76.38z"/>
	</g>
</g>
</svg>
