<?xml version="1.0" encoding="UTF-8"?>
<!DOCTYPE svg PUBLIC "-//W3C//DTD SVG 1.1//EN" "http://www.w3.org/Graphics/SVG/1.1/DTD/svg11.dtd">
<!-- Creator: CorelDRAW -->
<svg xmlns="http://www.w3.org/2000/svg" xml:space="preserve" width="2048px" height="2048px" style="shape-rendering:geometricPrecision; text-rendering:geometricPrecision; image-rendering:optimizeQuality; fill-rule:evenodd; clip-rule:evenodd"
viewBox="0 0 2048 2048"
 xmlns:xlink="http://www.w3.org/1999/xlink">
 <defs>
  <style type="text/css">
   <![CDATA[
    .fil2 {fill:none}
    .fil12 {fill:#212121}
    .fil7 {fill:#757575}
    .fil11 {fill:#81D4FA}
    .fil1 {fill:#F57C00}
    .fil0 {fill:#FF9800}
    .fil8 {fill:#0277BD;fill-rule:nonzero}
    .fil9 {fill:#0288D1;fill-rule:nonzero}
    .fil10 {fill:#039BE5;fill-rule:nonzero}
    .fil4 {fill:#3C3C3C;fill-rule:nonzero}
    .fil3 {fill:#424242;fill-rule:nonzero}
    .fil5 {fill:#B30606;fill-rule:nonzero}
    .fil6 {fill:#D50000;fill-rule:nonzero}
   ]]>
  </style>
   <clipPath id="id0">
    <path d="M1024 -0.0011811c565.541,0 1024,458.461 1024,1024 0,565.541 -458.461,1024 -1024,1024 -565.541,0 -1024,-458.461 -1024,-1024 0,-565.541 458.461,-1024 1024,-1024z"/>
   </clipPath>
 </defs>
 <g id="Layer_x0020_1">
  <metadata id="CorelCorpID_0Corel-Layer"/>
  <path class="fil0" d="M1024 -0.0011811c565.541,0 1024,458.461 1024,1024 0,565.541 -458.461,1024 -1024,1024 -565.541,0 -1024,-458.461 -1024,-1024 0,-565.541 458.461,-1024 1024,-1024z"/>
  <g style="clip-path:url(#id0)">
   <g id="_466412032">
    <g>
     <polygon id="_4608800401" class="fil1" points="1520.27,608.265 2656.15,1744.15 2657.03,1745.26 2657.85,1746.41 2658.61,1747.59 2659.31,1748.81 2659.94,1750.05 2660.52,1751.32 2661.03,1752.61 2661.48,1753.92 2661.86,1755.25 2662.18,1756.59 1526.3,620.711 1525.98,619.366 1525.6,618.036 1525.15,616.725 1524.64,615.434 1524.06,614.165 1523.43,612.924 1522.73,611.71 1521.97,610.528 1521.15,609.378 "/>
     <polygon id="_460880016" class="fil1" points="1526.3,620.711 2662.18,1756.59 2662.44,1757.95 2662.63,1759.32 2662.75,1760.7 2662.81,1762.08 2662.8,1763.47 2662.72,1764.87 2662.57,1766.26 2662.36,1767.65 2662.08,1769.03 2661.72,1770.4 2661.3,1771.77 2660.81,1773.12 2660.25,1774.45 2659.61,1775.77 2658.9,1777.06 2658.12,1778.33 1522.24,642.452 1523.02,641.181 1523.73,639.885 1524.37,638.569 1524.93,637.235 1525.42,635.885 1525.84,634.521 1526.2,633.147 1526.48,631.764 1526.69,630.375 1526.84,628.984 1526.91,627.592 1526.92,626.202 1526.87,624.815 1526.74,623.437 1526.56,622.068 "/>
     <polygon id="_460879632" class="fil1" points="1206.78,496.324 2342.66,1632.21 2344.03,1634.03 2345.2,1635.96 2346.17,1637.98 2346.94,1640.08 2347.51,1642.23 2347.87,1644.44 2348.02,1646.67 2347.95,1648.91 2347.66,1651.15 2347.15,1653.37 2346.42,1655.55 2345.46,1657.68 2344.26,1659.74 1208.38,523.855 1209.58,521.795 1210.54,519.667 1211.27,517.485 1211.78,515.267 1212.07,513.028 1212.14,510.786 1211.99,508.555 1211.63,506.352 1211.06,504.193 1210.29,502.095 1209.32,500.073 1208.14,498.144 "/>
     <polygon id="_460879608" class="fil1" points="862.112,509.409 1997.99,1645.29 1995.22,1642.35 1992.41,1639.44 856.534,503.555 859.342,506.467 "/>
     <polygon id="_460879584" class="fil1" points="969.452,592.46 2105.33,1728.34 2107.02,1732.55 2108.65,1736.79 2110.24,1741.04 2111.77,1745.31 2113.26,1749.6 2114.69,1753.91 2116.07,1758.23 2117.39,1762.57 2118.67,1766.93 2119.89,1771.31 2121.06,1775.7 2122.18,1780.1 2123.25,1784.52 2124.26,1788.96 2125.22,1793.41 2126.13,1797.87 2126.98,1802.34 2127.78,1806.83 2128.53,1811.33 2129.22,1815.84 2129.86,1820.36 2130.44,1824.9 2130.97,1829.44 2131.44,1833.99 2131.86,1838.56 2132.22,1843.13 2132.53,1847.71 2132.78,1852.29 2132.98,1856.89 2133.12,1861.49 2133.2,1866.1 2133.23,1870.71 997.351,734.829 997.322,730.216 997.239,725.607 997.097,721.006 996.901,716.411 996.648,711.824 996.341,707.245 995.977,702.674 995.559,698.111 995.085,693.558 994.557,689.015 993.974,684.482 993.336,679.96 992.645,675.448 991.9,670.948 991.1,666.461 990.246,661.986 989.341,657.524 988.38,653.075 987.368,648.639 986.302,644.219 985.183,639.813 984.011,635.423 982.788,631.048 981.512,626.69 980.185,622.347 978.805,618.023 977.375,613.715 975.892,609.427 974.358,605.156 972.773,600.904 971.139,596.672 "/>
     <polygon id="_460879560" class="fil1" points="725.331,511.006 1861.21,1646.89 1861.21,1673.78 725.331,537.897 "/>
     <polygon id="_460879536" class="fil1" points="725.331,537.897 1861.21,1673.78 1861.21,1864.37 725.331,728.486 "/>
     <polygon id="_460879512" class="fil1" points="1124.39,653.197 2260.27,1789.08 2258.87,1791.01 2257.32,1792.75 2255.62,1794.31 2253.8,1795.68 2251.88,1796.85 2249.85,1797.82 2247.76,1798.59 2245.6,1799.16 2243.39,1799.52 2241.16,1799.67 2238.92,1799.6 2236.68,1799.31 2234.46,1798.8 2232.28,1798.07 2230.15,1797.11 2228.09,1795.91 1092.21,660.032 1094.27,661.226 1096.4,662.189 1098.58,662.923 1100.8,663.43 1103.04,663.717 1105.28,663.785 1107.51,663.637 1109.72,663.278 1111.88,662.711 1113.97,661.939 1115.99,660.965 1117.92,659.794 1119.74,658.427 1121.44,656.871 1122.99,655.126 "/>
     <polygon id="_460879488" class="fil1" points="1130.22,707.699 2266.1,1843.58 2264.17,1842.19 2262.43,1840.63 1126.54,704.75 1128.29,706.303 "/>
     <polygon id="_460879464" class="fil1" points="1265.78,511.655 2401.66,1647.54 2403.03,1649.36 2404.2,1651.29 2405.17,1653.31 2405.95,1655.41 2406.51,1657.57 2406.87,1659.77 2407.02,1662 2406.95,1664.24 2406.67,1666.48 2406.16,1668.7 2405.43,1670.88 2404.46,1673.01 2403.27,1675.07 1267.39,539.185 1268.58,537.126 1269.54,534.997 1270.28,532.816 1270.79,530.598 1271.07,528.359 1271.14,526.117 1270.99,523.885 1270.63,521.683 1270.07,519.524 1269.29,517.426 1268.32,515.404 1267.15,513.475 "/>
     <polygon id="_460879440" class="fil1" points="896.266,477.794 2032.15,1613.68 2035.27,1617.07 2038.34,1620.5 2041.37,1623.96 2044.35,1627.46 2047.29,1630.98 2050.18,1634.54 2053.02,1638.13 2055.82,1641.75 2058.58,1645.41 2061.28,1649.09 2063.94,1652.8 2066.56,1656.54 2069.12,1660.31 2071.64,1664.11 2074.11,1667.94 2076.53,1671.79 2078.91,1675.67 2081.23,1679.57 2083.51,1683.51 2085.74,1687.46 2087.92,1691.45 2090.06,1695.45 2092.14,1699.49 2094.17,1703.54 2096.16,1707.62 2098.09,1711.72 2099.98,1715.84 2101.81,1719.99 2103.6,1724.16 2105.33,1728.34 969.452,592.46 967.717,588.273 965.932,584.106 964.097,579.962 962.212,575.839 960.276,571.738 958.292,567.659 956.258,563.605 954.174,559.572 952.041,555.565 949.86,551.582 947.63,547.624 945.352,543.693 943.025,539.787 940.65,535.906 938.227,532.053 935.756,528.227 933.239,524.429 930.674,520.659 928.061,516.918 925.401,513.206 922.696,509.524 919.942,505.871 917.143,502.25 914.298,498.659 911.407,495.101 908.469,491.574 905.486,488.079 902.459,484.617 899.384,481.189 "/>
     <polygon id="_460879416" class="fil1" points="725.331,489.4 1861.21,1625.28 1861.21,1646.89 725.331,511.006 "/>
     <polygon id="_460879392" class="fil1" points="725.331,728.486 1861.21,1864.37 1861.21,1864.6 725.331,728.717 "/>
     <polygon id="_460879368" class="fil1" points="725.331,728.717 1861.21,1864.6 1861.21,2055.42 725.331,919.535 "/>
     <polygon id="_460879344" class="fil1" points="1318.39,956.355 2454.27,2092.24 2453.43,2093.47 2452.53,2094.64 2451.59,2095.76 2450.6,2096.81 2449.56,2097.81 2448.49,2098.75 2447.37,2099.63 2446.23,2100.45 2445.04,2101.21 2443.83,2101.91 2442.59,2102.55 2441.32,2103.12 2440.03,2103.64 2438.72,2104.08 2437.39,2104.47 2436.04,2104.79 1300.16,968.907 1301.5,968.587 1302.83,968.202 1304.15,967.755 1305.44,967.242 1306.71,966.667 1307.95,966.03 1309.16,965.331 1310.34,964.572 1311.49,963.751 1312.61,962.87 1313.68,961.929 1314.72,960.93 1315.71,959.873 1316.65,958.757 1317.55,957.584 "/>
     <polygon id="_460879320" class="fil1" points="1208.38,523.855 2344.26,1659.74 2260.27,1789.08 1124.39,653.197 "/>
     <polygon id="_460878120" class="fil1" points="1300.16,968.907 2436.04,2104.79 2434.68,2105.04 2433.31,2105.23 2431.94,2105.36 2430.55,2105.41 2429.16,2105.4 2427.77,2105.32 2426.38,2105.18 2424.99,2104.97 2423.61,2104.68 2422.23,2104.33 2420.87,2103.91 2419.52,2103.42 2418.18,2102.85 2416.87,2102.22 2415.57,2101.51 2414.3,2100.73 1278.42,964.847 1279.69,965.628 1280.99,966.335 1282.3,966.972 1283.64,967.535 1284.99,968.028 1286.35,968.449 1287.73,968.801 1289.11,969.085 1290.5,969.297 1291.89,969.442 1293.28,969.52 1294.67,969.53 1296.06,969.473 1297.43,969.35 1298.8,969.161 "/>
     <polygon id="_460878168" class="fil1" points="509.693,847.458 1645.57,1983.34 1643.23,1983.28 1640.91,1983.1 1638.63,1982.81 1636.38,1982.41 1634.17,1981.9 1632,1981.28 1629.88,1980.56 1627.81,1979.74 1625.79,1978.82 1623.82,1977.81 1621.9,1976.71 1620.05,1975.52 1618.26,1974.24 1616.53,1972.89 1614.87,1971.45 478.992,835.567 480.65,837.004 482.376,838.361 484.167,839.637 486.022,840.827 487.935,841.929 489.905,842.94 491.928,843.857 494.002,844.678 496.124,845.397 498.291,846.015 500.5,846.526 502.747,846.93 505.03,847.222 507.346,847.398 "/>
     <polygon id="_460880136" class="fil1" points="725.331,1101.55 1861.21,2237.44 1861.21,2264.33 725.331,1128.44 "/>
     <polygon id="_460880112" class="fil1" points="725.331,1128.44 1861.21,2264.33 1861.21,2454.92 725.331,1319.03 "/>
     <polygon id="_460880088" class="fil1" points="725.331,1319.03 1861.21,2454.92 1861.21,2455.15 725.331,1319.27 "/>
     <polygon id="_460880064" class="fil1" points="725.331,1319.27 1861.21,2455.15 1861.21,2645.97 725.331,1510.08 "/>
     <polygon id="_460879680" class="fil1" points="725.331,1510.08 1861.21,2645.97 1861.21,2694.46 725.331,1558.58 "/>
     <polygon id="_460881216" class="fil1" points="725.331,1558.58 1861.21,2694.46 1823.3,2664.1 687.414,1528.22 "/>
     <polygon id="_460881192" class="fil1" points="687.414,1528.22 1823.3,2664.1 1710.62,2573.89 574.741,1438.01 "/>
     <polygon id="_460881168" class="fil1" points="574.741,1438.01 1710.62,2573.89 1710.15,2573.89 574.265,1438.01 "/>
     <polygon id="_460881144" class="fil1" points="574.265,1438.01 1710.15,2573.89 1709.95,2573.89 574.069,1438.01 "/>
     <polygon id="_460881120" class="fil1" points="574.069,1438.01 1709.95,2573.89 1645.57,2573.89 509.693,1438.01 "/>
     <polygon id="_460881096" class="fil1" points="509.693,1438.01 1645.57,2573.89 1643.23,2573.83 1640.91,2573.65 1638.63,2573.36 1636.38,2572.96 1634.17,2572.45 1632,2571.83 1629.88,2571.11 1627.81,2570.29 1625.79,2569.37 1623.82,2568.36 1621.9,2567.26 1620.05,2566.07 1618.26,2564.79 1616.53,2563.43 480.65,1427.55 482.376,1428.91 484.167,1430.18 486.022,1431.38 487.935,1432.48 489.905,1433.49 491.928,1434.41 494.002,1435.23 496.124,1435.95 498.291,1436.56 500.5,1437.08 502.747,1437.48 505.03,1437.77 507.346,1437.95 "/>
     <polygon id="_460881072" class="fil1" points="814.27,552.577 1950.15,1688.46 1952.35,1690.8 1954.51,1693.17 1956.64,1695.56 1958.75,1697.97 1960.82,1700.41 1962.86,1702.87 1964.87,1705.35 1966.84,1707.85 1968.79,1710.38 1970.7,1712.92 1972.59,1715.49 1974.44,1718.08 1976.26,1720.68 1978.05,1723.31 1979.8,1725.96 1981.52,1728.63 1983.21,1731.31 1984.87,1734.02 1986.5,1736.74 1988.09,1739.48 1989.65,1742.24 1991.18,1745.01 1992.67,1747.81 1994.13,1750.62 1995.56,1753.44 1996.95,1756.29 1998.31,1759.14 1999.64,1762.02 2000.93,1764.91 2002.18,1767.81 2003.41,1770.73 2004.6,1773.67 868.716,637.784 867.526,634.85 866.303,631.932 865.045,629.026 863.754,626.137 862.427,623.262 861.068,620.404 859.675,617.561 858.249,614.735 856.789,611.924 855.295,609.132 853.769,606.355 852.209,603.597 850.616,600.856 848.991,598.133 847.333,595.428 845.643,592.744 843.92,590.077 842.164,587.43 840.377,584.802 838.557,582.195 836.707,579.608 834.823,577.041 832.908,574.496 830.962,571.971 828.984,569.468 826.975,566.987 824.934,564.528 822.864,562.092 820.762,559.678 818.629,557.287 816.465,554.92 "/>
     <polygon id="_460881048" class="fil1" points="868.716,637.784 2004.6,1773.67 2005.75,1776.62 2006.88,1779.58 2007.96,1782.56 2009.01,1785.55 2010.03,1788.55 2011.01,1791.56 2011.96,1794.58 2012.87,1797.62 2013.74,1800.66 2014.58,1803.72 2015.38,1806.78 2016.15,1809.85 2016.88,1812.94 2017.58,1816.03 2018.23,1819.13 2018.86,1822.24 2019.44,1825.35 2019.99,1828.48 2020.5,1831.61 2020.97,1834.75 2021.41,1837.89 2021.81,1841.05 2022.17,1844.2 2022.49,1847.37 2022.78,1850.54 2023.03,1853.71 2023.24,1856.89 2023.41,1860.07 2023.55,1863.26 2023.64,1866.45 2023.7,1869.65 2023.72,1872.84 887.84,736.962 887.821,733.764 887.763,730.569 887.666,727.378 887.532,724.19 887.359,721.007 887.148,717.827 886.9,714.654 886.613,711.485 886.288,708.322 885.927,705.164 885.527,702.012 885.09,698.867 884.617,695.728 884.107,692.597 883.559,689.473 882.974,686.356 882.353,683.247 881.695,680.147 881,677.054 880.269,673.972 879.503,670.899 878.699,667.834 877.861,664.779 876.987,661.736 876.076,658.701 875.13,655.679 874.149,652.667 873.133,649.666 872.081,646.678 870.994,643.7 869.872,640.736 "/>
     <polygon id="_460881024" class="fil1" points="872.893,825.004 2008.77,1960.89 2007.85,1963.51 2006.89,1966.13 2005.91,1968.73 2004.9,1971.33 2003.86,1973.91 2002.8,1976.49 2001.7,1979.05 2000.58,1981.6 1999.44,1984.15 1998.26,1986.68 1997.07,1989.2 1995.84,1991.71 1994.59,1994.2 1993.31,1996.69 1992,1999.16 1990.67,2001.62 1989.31,2004.07 1987.92,2006.5 1986.51,2008.92 1985.07,2011.33 1983.61,2013.72 1982.12,2016.1 1980.6,2018.47 1979.06,2020.82 1977.5,2023.16 1975.9,2025.48 1974.28,2027.79 1972.64,2030.08 1970.97,2032.36 1969.27,2034.62 1967.55,2036.87 1965.81,2039.1 829.927,903.213 831.673,900.983 833.392,898.737 835.088,896.475 836.757,894.198 838.401,891.905 840.021,889.598 841.614,887.274 843.181,884.937 844.723,882.585 846.238,880.218 847.729,877.838 849.192,875.444 850.629,873.037 852.042,870.616 853.427,868.183 854.786,865.736 856.119,863.275 857.425,860.803 858.705,858.32 859.958,855.823 861.185,853.314 862.384,850.795 863.558,848.264 864.703,845.721 865.822,843.167 866.914,840.603 867.979,838.028 869.017,835.443 870.027,832.848 871.009,830.244 871.965,827.629 "/>
     <polygon id="_460880184" class="fil1" points="829.927,903.213 1965.81,2039.1 1964.24,2040.89 1962.54,2042.48 1960.71,2043.87 1958.77,2045.06 1956.74,2046.05 1954.64,2046.83 1952.49,2047.4 1950.29,2047.77 1948.06,2047.92 1945.83,2047.86 1943.6,2047.59 1941.41,2047.1 1939.25,2046.39 1937.14,2045.46 1935.12,2044.3 1933.18,2042.92 797.297,907.041 799.235,908.42 801.263,909.574 803.365,910.504 805.524,911.214 807.723,911.705 809.949,911.979 812.181,912.04 814.405,911.885 816.604,911.52 818.762,910.946 820.862,910.164 822.889,909.177 824.825,907.986 826.654,906.595 828.361,905.003 "/>
     <polygon id="_460880232" class="fil1" points="725.331,919.535 1861.21,2055.42 1861.21,2103.91 725.331,968.032 "/>
     <polygon id="_460882104" class="fil1" points="725.331,968.032 1861.21,2103.91 1823.3,2073.56 687.414,937.673 "/>
     <polygon id="_460882080" class="fil1" points="687.414,937.673 1823.3,2073.56 1710.62,1983.34 574.741,847.458 "/>
     <polygon id="_460882056" class="fil1" points="574.741,847.458 1710.62,1983.34 1710.15,1983.34 574.265,847.458 "/>
     <polygon id="_460882032" class="fil1" points="574.265,847.458 1710.15,1983.34 1709.95,1983.34 574.069,847.458 "/>
     <polygon id="_460882008" class="fil1" points="574.069,847.458 1709.95,1983.34 1645.57,1983.34 509.693,847.458 "/>
     <polygon id="_460881984" class="fil1" points="725.331,1079.95 1861.21,2215.83 1861.21,2237.44 725.331,1101.55 "/>
     <polygon id="_460881960" class="fil1" points="887.84,736.962 2023.72,1872.84 2023.71,1875.66 2023.66,1878.47 2023.59,1881.28 2023.48,1884.09 2023.35,1886.9 2023.18,1889.7 2022.99,1892.5 2022.77,1895.3 2022.52,1898.1 2022.23,1900.89 2021.92,1903.67 2021.58,1906.45 2021.21,1909.23 2020.82,1912 2020.39,1914.77 2019.93,1917.54 2019.45,1920.29 2018.93,1923.05 2018.39,1925.79 2017.82,1928.53 2017.22,1931.27 2016.59,1934 2015.94,1936.72 2015.26,1939.44 2014.54,1942.14 2013.8,1944.84 2013.03,1947.54 2012.24,1950.22 2011.41,1952.9 2010.56,1955.57 2009.68,1958.23 2008.77,1960.89 872.893,825.004 873.8,822.351 874.68,819.689 875.532,817.02 876.356,814.341 877.152,811.655 877.921,808.962 878.662,806.261 879.374,803.553 880.058,800.838 880.713,798.115 881.342,795.387 881.94,792.653 882.511,789.911 883.053,787.164 883.567,784.412 884.051,781.654 884.507,778.89 884.935,776.122 885.333,773.35 885.701,770.572 886.041,767.789 886.352,765.003 886.634,762.213 886.887,759.42 887.109,756.622 887.303,753.821 887.467,751.019 887.6,748.211 887.705,745.403 887.78,742.592 887.825,739.778 "/>
     <polygon id="_460881936" class="fil1" points="972.694,868.875 2108.58,2004.76 2107.04,2008.74 2105.45,2012.71 2103.82,2016.65 2102.15,2020.58 2100.43,2024.49 2098.67,2028.38 2096.87,2032.25 2095.02,2036.11 2093.12,2039.94 2091.19,2043.75 2089.21,2047.53 2087.19,2051.3 2085.12,2055.04 2083.01,2058.77 2080.86,2062.46 2078.67,2066.14 2076.43,2069.79 2074.15,2073.42 2071.83,2077.03 2069.47,2080.6 2067.06,2084.16 2064.62,2087.69 2062.13,2091.19 2059.6,2094.66 2057.03,2098.11 2054.42,2101.54 2051.77,2104.93 2049.07,2108.3 2046.34,2111.64 2043.56,2114.94 2040.75,2118.22 2037.9,2121.48 902.014,985.594 904.869,982.342 907.684,979.063 910.458,975.753 913.192,972.414 915.885,969.048 918.538,965.653 921.15,962.231 923.721,958.782 926.25,955.306 928.737,951.804 931.183,948.276 933.588,944.722 935.951,941.143 938.271,937.54 940.55,933.911 942.786,930.258 944.979,926.583 947.131,922.883 949.24,919.162 951.305,915.418 953.328,911.651 955.307,907.863 957.243,904.054 959.136,900.224 960.985,896.372 962.791,892.502 964.552,888.611 966.269,884.701 967.941,880.772 969.57,876.824 971.155,872.859 "/>
     <polygon id="_460881264" class="fil1" points="797.297,907.041 1933.18,2042.92 1931.39,2041.36 795.507,905.475 "/>
     <polygon id="_460882992" class="fil1" points="902.014,985.594 2037.9,2121.48 2036.22,2123.18 2034.42,2124.67 2032.51,2125.96 2030.5,2127.03 2028.41,2127.9 2026.26,2128.56 2024.06,2129.01 2021.84,2129.25 2019.6,2129.27 2017.37,2129.08 2015.16,2128.67 2012.99,2128.05 2010.86,2127.21 2008.81,2126.16 2006.85,2124.88 2004.99,2123.39 869.11,987.507 870.97,989.002 872.933,990.276 874.984,991.332 877.104,992.17 879.278,992.792 881.49,993.198 883.723,993.388 885.959,993.365 888.183,993.128 890.378,992.681 892.528,992.022 894.615,991.152 896.624,990.074 898.538,988.788 900.341,987.294 "/>
     <polygon id="_460882968" class="fil1" points="997.351,734.829 2133.23,1870.71 2133.21,1875.03 2133.13,1879.35 2133.01,1883.66 2132.84,1887.97 2132.61,1892.26 2132.34,1896.56 2132.02,1900.85 2131.65,1905.13 2131.24,1909.4 2130.77,1913.66 2130.26,1917.92 2129.69,1922.17 2129.08,1926.41 2128.43,1930.64 2127.72,1934.86 2126.97,1939.07 2126.17,1943.27 2125.32,1947.46 2124.42,1951.64 2123.48,1955.81 2122.49,1959.96 2121.46,1964.1 2120.38,1968.23 2119.25,1972.35 2118.07,1976.45 2116.85,1980.54 2115.59,1984.61 2114.28,1988.67 2112.92,1992.72 2111.52,1996.75 2110.07,2000.76 2108.58,2004.76 972.694,868.875 974.187,864.878 975.635,860.865 977.038,856.836 978.396,852.791 979.707,848.731 980.974,844.657 982.194,840.568 983.368,836.466 984.496,832.349 985.578,828.219 986.612,824.077 987.601,819.923 988.543,815.756 989.437,811.579 990.285,807.389 991.086,803.188 991.839,798.977 992.545,794.757 993.203,790.527 993.812,786.288 994.374,782.038 994.889,777.781 995.355,773.516 995.772,769.243 996.141,764.963 996.461,760.677 996.732,756.382 996.954,752.083 997.128,747.777 997.252,743.466 997.326,739.15 "/>
     <polygon id="_460882944" class="fil1" points="1109.95,855.441 2245.83,1991.32 2244.6,1990.48 2243.43,1989.58 2242.31,1988.64 2241.25,1987.65 2240.25,1986.62 1104.37,850.735 1105.37,851.768 1106.43,852.759 1107.55,853.703 1108.72,854.598 "/>
     <polygon id="_460882920" class="fil1" points="1278.42,964.847 2414.3,2100.73 2245.83,1991.32 1109.95,855.441 "/>
     <polygon id="_460882896" class="fil1" points="1267.39,539.185 2403.27,1675.07 2298.27,1836.75 1162.39,700.864 "/>
     <polygon id="_460882872" class="fil1" points="1405.07,886.19 2540.95,2022.07 2539.02,2020.68 2537.28,2019.12 2535.72,2017.43 1399.84,881.546 1401.4,883.241 1403.14,884.794 "/>
     <polygon id="_460882848" class="fil1" points="1092.21,660.032 2228.09,1795.91 2226.17,1794.52 2224.42,1792.97 1088.54,657.083 1090.28,658.636 "/>
     <polygon id="_460882824" class="fil1" points="1162.39,700.864 2298.27,1836.75 2296.88,1838.68 2295.32,1840.42 2293.63,1841.98 2291.81,1843.34 2289.88,1844.51 2287.86,1845.49 2285.76,1846.26 2283.6,1846.83 2281.4,1847.19 2279.17,1847.33 2276.92,1847.27 2274.69,1846.98 2272.47,1846.47 2270.29,1845.74 2268.16,1844.78 2266.1,1843.58 1130.22,707.699 1132.28,708.893 1134.41,709.856 1136.59,710.59 1138.81,711.097 1141.04,711.384 1143.29,711.452 1145.52,711.304 1147.72,710.945 1149.88,710.378 1151.98,709.606 1154,708.632 1155.93,707.461 1157.75,706.094 1159.44,704.538 1161,702.793 "/>
     <polygon id="_460882152" class="fil1" points="1360.23,1079.95 2496.11,2215.83 2496.11,2237.44 1360.23,1101.55 "/>
     <polygon id="_460887048" class="fil1" points="1360.23,1101.55 2496.11,2237.44 2496.11,2264.33 1360.23,1128.44 "/>
     <polygon id="_460887024" class="fil1" points="1360.23,1128.44 2496.11,2264.33 2496.11,2454.92 1360.23,1319.03 "/>
     <polygon id="_460887000" class="fil1" points="1360.23,1319.03 2496.11,2454.92 2496.11,2455.15 1360.23,1319.27 "/>
     <polygon id="_460886976" class="fil1" points="947.219,1061.64 2083.1,2197.52 2086.31,2200.85 2089.47,2204.21 2092.59,2207.6 2095.66,2211.03 2098.69,2214.49 2101.68,2217.99 2104.61,2221.51 2107.5,2225.07 2110.35,2228.66 2113.15,2232.29 2115.9,2235.94 2118.61,2239.62 2121.27,2243.33 2123.88,2247.07 2126.45,2250.84 2128.96,2254.64 2131.43,2258.47 2133.86,2262.32 2136.23,2266.2 2138.56,2270.11 2140.84,2274.04 2143.07,2278 2145.25,2281.98 2147.38,2285.99 2149.46,2290.02 2151.5,2294.07 2153.48,2298.15 2155.42,2302.25 2157.3,2306.37 2159.14,2310.52 2160.92,2314.69 2162.66,2318.87 1026.78,1182.99 1025.04,1178.8 1023.26,1174.64 1021.42,1170.49 1019.54,1166.37 1017.6,1162.27 1015.62,1158.19 1013.58,1154.14 1011.5,1150.1 1009.37,1146.1 1007.18,1142.11 1004.95,1138.16 1002.68,1134.22 1000.35,1130.32 997.976,1126.44 995.553,1122.58 993.082,1118.76 990.564,1114.96 987.999,1111.19 985.386,1107.45 982.726,1103.74 980.02,1100.05 977.267,1096.4 974.468,1092.78 971.623,1089.19 968.731,1085.63 965.794,1082.1 962.812,1078.61 959.783,1075.15 956.709,1071.72 953.591,1068.32 950.427,1064.96 "/>
     <polygon id="_460886952" class="fil1" points="1026.78,1182.99 2162.66,2318.87 2164.34,2323.08 2165.98,2327.32 2167.56,2331.57 2169.1,2335.84 2170.58,2340.13 2172.01,2344.44 2173.39,2348.76 2174.72,2353.1 2175.99,2357.46 2177.22,2361.84 2178.39,2366.23 2179.51,2370.63 2180.57,2375.05 2181.59,2379.49 2182.55,2383.94 2183.45,2388.4 2184.31,2392.88 2185.11,2397.36 2185.85,2401.86 2186.54,2406.37 2187.18,2410.9 2187.76,2415.43 2188.29,2419.97 2188.77,2424.53 2189.18,2429.09 2189.55,2433.66 2189.85,2438.24 2190.11,2442.83 2190.3,2447.42 2190.44,2452.02 2190.53,2456.63 2190.56,2461.24 1054.68,1325.36 1054.65,1320.75 1054.56,1316.14 1054.42,1311.54 1054.23,1306.94 1053.97,1302.36 1053.67,1297.78 1053.3,1293.21 1052.88,1288.64 1052.41,1284.09 1051.88,1279.55 1051.3,1275.01 1050.66,1270.49 1049.97,1265.98 1049.22,1261.48 1048.43,1256.99 1047.57,1252.52 1046.67,1248.06 1045.71,1243.61 1044.69,1239.17 1043.63,1234.75 1042.51,1230.34 1041.34,1225.95 1040.11,1221.58 1038.84,1217.22 1037.51,1212.88 1036.13,1208.55 1034.7,1204.25 1033.22,1199.96 1031.68,1195.69 1030.1,1191.44 1028.46,1187.2 "/>
     <polygon id="_460886928" class="fil1" points="1360.23,1558.58 2496.11,2694.46 2458.2,2664.1 1322.31,1528.22 "/>
     <polygon id="_460886904" class="fil1" points="1322.31,1528.22 2458.2,2664.1 2345.52,2573.89 1209.64,1438.01 "/>
     <polygon id="_460886880" class="fil1" points="1209.64,1438.01 2345.52,2573.89 2345.05,2573.89 1209.17,1438.01 "/>
     <polygon id="_460886856" class="fil1" points="1209.17,1438.01 2345.05,2573.89 2344.85,2573.89 1208.97,1438.01 "/>
     <polygon id="_460886832" class="fil1" points="850.601,1141.47 1986.48,2277.35 1988.21,2278.99 852.328,1143.11 "/>
     <polygon id="_460886808" class="fil1" points="852.328,1143.11 1988.21,2278.99 1990.4,2281.33 1992.57,2283.7 1994.7,2286.09 1996.8,2288.5 1998.87,2290.94 2000.91,2293.4 2002.92,2295.88 2004.9,2298.38 2006.85,2300.91 2008.76,2303.45 2010.64,2306.02 2012.5,2308.61 2014.31,2311.21 2016.1,2313.84 2017.86,2316.49 2019.58,2319.16 2021.27,2321.84 2022.93,2324.54 2024.56,2327.27 2026.15,2330.01 2027.71,2332.77 2029.23,2335.54 2030.73,2338.34 2032.19,2341.15 2033.61,2343.97 2035.01,2346.82 2036.37,2349.68 2037.69,2352.55 2038.98,2355.44 2040.24,2358.34 2041.46,2361.26 2042.65,2364.2 906.773,1228.31 905.584,1225.38 904.36,1222.46 903.102,1219.56 901.811,1216.67 900.485,1213.79 899.125,1210.93 897.733,1208.09 896.306,1205.26 894.845,1202.45 893.352,1199.66 891.826,1196.89 890.266,1194.13 888.674,1191.39 887.049,1188.66 885.39,1185.96 883.699,1183.27 881.977,1180.61 880.222,1177.96 878.434,1175.33 876.615,1172.72 874.763,1170.14 872.88,1167.57 870.966,1165.02 869.019,1162.5 867.041,1160 865.032,1157.52 862.992,1155.06 860.92,1152.62 858.818,1150.21 856.686,1147.82 854.522,1145.45 "/>
     <polygon id="_460886784" class="fil1" points="836.625,1322.73 1972.51,2458.61 1972.5,2459.93 1972.48,2461.25 1972.44,2462.57 1972.39,2463.89 1972.33,2465.22 1972.25,2466.53 1972.16,2467.85 1972.05,2469.17 1971.93,2470.49 1971.8,2471.8 1971.65,2473.11 1971.49,2474.42 1971.32,2475.74 1971.13,2477.04 1970.92,2478.35 1970.71,2479.65 1970.48,2480.96 1970.23,2482.26 1969.98,2483.56 1969.7,2484.85 1969.42,2486.14 1969.12,2487.44 1968.81,2488.72 1968.49,2490.01 1968.15,2491.29 1967.8,2492.57 1967.43,2493.85 1967.05,2495.12 1966.66,2496.39 1966.26,2497.66 1965.84,2498.92 1965.41,2500.18 829.529,1364.3 829.96,1363.04 830.377,1361.77 830.782,1360.51 831.173,1359.24 831.551,1357.96 831.916,1356.69 832.267,1355.41 832.606,1354.13 832.931,1352.84 833.241,1351.55 833.54,1350.26 833.823,1348.97 834.095,1347.67 834.353,1346.38 834.596,1345.07 834.826,1343.77 835.042,1342.47 835.246,1341.16 835.435,1339.85 835.609,1338.54 835.771,1337.23 835.919,1335.92 836.052,1334.6 836.173,1333.29 836.278,1331.97 836.37,1330.65 836.448,1329.33 836.512,1328.01 836.561,1326.69 836.597,1325.37 836.618,1324.05 "/>
     <polygon id="_460886760" class="fil1" points="809.241,1401.19 1945.12,2537.08 1943.56,2538.87 1941.85,2540.46 1940.02,2541.85 1938.08,2543.04 1936.06,2544.03 1933.96,2544.81 1931.8,2545.38 1929.6,2545.75 1927.38,2545.9 1925.14,2545.84 1922.92,2545.57 1920.72,2545.08 1918.56,2544.37 1916.46,2543.44 1914.43,2542.28 1912.49,2540.9 776.61,1405.02 778.548,1406.4 780.576,1407.55 782.678,1408.48 784.837,1409.19 787.038,1409.69 789.262,1409.96 791.494,1410.02 793.718,1409.87 795.917,1409.5 798.076,1408.93 800.176,1408.14 802.203,1407.16 804.139,1405.97 805.968,1404.58 807.675,1402.98 "/>
     <polygon id="_460886736" class="fil1" points="1360.23,1319.27 2496.11,2455.15 2496.11,2645.97 1360.23,1510.08 "/>
     <polygon id="_460886712" class="fil1" points="1360.23,1510.08 2496.11,2645.97 2496.11,2694.46 1360.23,1558.58 "/>
     <polygon id="_460886688" class="fil1" points="906.773,1228.31 2042.65,2364.2 2043.81,2367.15 2044.93,2370.11 2046.02,2373.09 2047.07,2376.08 2048.09,2379.08 2049.07,2382.09 2050.01,2385.11 2050.93,2388.15 2051.8,2391.19 2052.64,2394.25 2053.44,2397.31 2054.21,2400.39 2054.94,2403.47 2055.63,2406.56 2056.29,2409.66 2056.91,2412.77 2057.5,2415.89 2058.05,2419.01 2058.56,2422.14 2059.03,2425.28 2059.47,2428.43 2059.87,2431.58 2060.23,2434.73 2060.55,2437.9 2060.84,2441.07 2061.09,2444.24 2061.3,2447.42 2061.47,2450.6 2061.61,2453.79 2061.7,2456.98 2061.76,2460.18 2061.78,2463.38 925.898,1327.49 925.879,1324.29 925.821,1321.1 925.724,1317.91 925.589,1314.72 925.417,1311.54 925.205,1308.36 924.957,1305.18 924.67,1302.02 924.346,1298.85 923.984,1295.69 923.585,1292.54 923.148,1289.4 922.674,1286.26 922.164,1283.13 921.616,1280 921.031,1276.89 920.41,1273.78 919.752,1270.68 919.058,1267.59 918.327,1264.5 917.56,1261.43 916.757,1258.37 915.918,1255.31 915.044,1252.27 914.134,1249.23 913.188,1246.21 912.206,1243.2 911.19,1240.2 910.138,1237.21 909.051,1234.23 907.929,1231.27 "/>
     <polygon id="_460886664" class="fil1" points="800.117,1234.02 1936,2369.9 1937.73,2371.54 801.844,1235.66 "/>
     <polygon id="_460886640" class="fil1" points="829.529,1364.3 1965.41,2500.18 1964.52,2502.64 1963.58,2505.09 1962.59,2507.52 1961.55,2509.94 1960.46,2512.33 1959.31,2514.7 1958.12,2517.05 1956.87,2519.37 1955.57,2521.68 1954.23,2523.96 1952.83,2526.21 1951.39,2528.44 1949.89,2530.64 1948.35,2532.81 1946.76,2534.96 1945.12,2537.08 809.241,1401.19 810.879,1399.08 812.47,1396.93 814.013,1394.76 815.507,1392.56 816.951,1390.33 818.346,1388.07 819.693,1385.8 820.988,1383.49 822.234,1381.17 823.431,1378.82 824.575,1376.45 825.669,1374.05 826.712,1371.64 827.703,1369.21 828.642,1366.76 "/>
     <polygon id="_460886616" class="fil1" points="835.354,1497.57 1971.24,2633.45 1969.45,2631.89 833.565,1496.01 "/>
     <polygon id="_460886592" class="fil1" points="801.844,1235.66 1937.73,2371.54 1938.76,2372.65 1939.78,2373.76 1940.79,2374.89 1941.78,2376.03 1942.75,2377.18 1943.72,2378.34 1944.67,2379.51 1945.6,2380.69 1946.52,2381.88 1947.42,2383.09 1948.31,2384.3 1949.18,2385.52 1950.04,2386.75 1950.89,2387.99 1951.72,2389.24 1952.53,2390.5 1953.33,2391.77 1954.11,2393.05 1954.88,2394.34 1955.63,2395.64 1956.37,2396.94 1957.09,2398.25 1957.79,2399.57 1958.48,2400.9 1959.16,2402.24 1959.82,2403.59 1960.46,2404.94 1961.09,2406.3 1961.7,2407.66 1962.29,2409.04 1962.87,2410.42 1963.44,2411.81 827.555,1275.93 826.992,1274.54 826.413,1273.16 825.818,1271.78 825.207,1270.42 824.58,1269.06 823.936,1267.7 823.277,1266.36 822.603,1265.02 821.913,1263.69 821.207,1262.37 820.485,1261.06 819.749,1259.75 818.996,1258.46 818.228,1257.17 817.445,1255.89 816.647,1254.62 815.834,1253.36 815.005,1252.11 814.16,1250.87 813.302,1249.64 812.428,1248.42 811.54,1247.2 810.636,1246 809.717,1244.81 808.784,1243.63 807.836,1242.46 806.873,1241.3 805.896,1240.15 804.905,1239.01 803.899,1237.88 802.879,1236.76 "/>
     <polygon id="_460886568" class="fil1" points="827.555,1275.93 1963.44,2411.81 1963.98,2413.21 1964.52,2414.62 1965.03,2416.03 1965.53,2417.44 1966.01,2418.86 1966.48,2420.29 1966.93,2421.72 1967.36,2423.16 1967.77,2424.59 1968.17,2426.04 1968.55,2427.49 1968.92,2428.94 1969.26,2430.4 1969.59,2431.86 1969.9,2433.32 1970.2,2434.79 1970.48,2436.26 1970.74,2437.73 1970.98,2439.21 1971.2,2440.69 1971.41,2442.17 1971.6,2443.65 1971.77,2445.14 1971.92,2446.63 1972.06,2448.12 1972.18,2449.62 1972.28,2451.11 1972.36,2452.61 1972.42,2454.11 1972.47,2455.6 1972.5,2457.11 1972.51,2458.61 836.625,1322.73 836.616,1321.22 836.588,1319.72 836.542,1318.22 836.479,1316.72 836.397,1315.23 836.297,1313.73 836.179,1312.24 836.043,1310.75 835.889,1309.26 835.718,1307.77 835.528,1306.29 835.321,1304.8 835.097,1303.33 834.855,1301.85 834.595,1300.37 834.317,1298.9 834.023,1297.44 833.71,1295.97 833.382,1294.51 833.034,1293.06 832.671,1291.6 832.29,1290.16 831.892,1288.71 831.478,1287.27 831.047,1285.84 830.598,1284.41 830.133,1282.98 829.651,1281.56 829.151,1280.14 828.636,1278.73 828.103,1277.33 "/>
     <polygon id="_460886544" class="fil1" points="925.898,1327.49 2061.78,2463.38 2061.76,2466.19 2061.72,2469 2061.64,2471.82 2061.54,2474.62 2061.41,2477.43 2061.24,2480.23 2061.05,2483.03 2060.83,2485.83 2060.57,2488.63 2060.29,2491.42 2059.98,2494.2 2059.64,2496.98 2059.27,2499.76 2058.87,2502.53 2058.45,2505.3 2057.99,2508.07 2057.51,2510.82 2056.99,2513.58 2056.45,2516.32 2055.88,2519.06 2055.28,2521.8 2054.65,2524.53 2054,2527.25 2053.31,2529.96 2052.6,2532.67 2051.86,2535.37 2051.09,2538.07 2050.29,2540.75 2049.47,2543.43 2048.62,2546.1 2047.74,2548.76 2046.83,2551.42 910.951,1415.53 911.858,1412.88 912.738,1410.22 913.589,1407.55 914.414,1404.87 915.21,1402.18 915.979,1399.49 916.719,1396.79 917.431,1394.08 918.115,1391.37 918.771,1388.65 919.399,1385.92 919.998,1383.18 920.568,1380.44 921.111,1377.69 921.624,1374.94 922.109,1372.18 922.564,1369.42 922.992,1366.65 923.39,1363.88 923.759,1361.1 924.099,1358.32 924.409,1355.53 924.692,1352.74 924.944,1349.95 925.166,1347.15 925.36,1344.35 925.524,1341.55 925.658,1338.74 925.763,1335.93 925.837,1333.12 925.882,1330.31 "/>
     <polygon id="_460886520" class="fil1" points="910.951,1415.53 2046.83,2551.42 2045.9,2554.04 2044.95,2556.66 2043.97,2559.26 2042.96,2561.85 2041.92,2564.44 2040.85,2567.01 2039.76,2569.58 2038.64,2572.13 2037.5,2574.68 2036.32,2577.21 2035.12,2579.73 2033.9,2582.23 2032.64,2584.73 2031.37,2587.21 2030.06,2589.69 2028.73,2592.15 2027.37,2594.59 2025.98,2597.03 2024.57,2599.45 2023.13,2601.86 2021.67,2604.25 2020.18,2606.63 2018.66,2609 2017.12,2611.35 2015.55,2613.69 2013.96,2616.01 2012.34,2618.32 2010.7,2620.61 2009.03,2622.89 2007.33,2625.15 2005.61,2627.4 2003.87,2629.63 867.986,1493.74 869.731,1491.51 871.452,1489.27 873.147,1487.01 874.816,1484.73 876.461,1482.43 878.079,1480.13 879.673,1477.8 881.24,1475.47 882.781,1473.11 884.298,1470.75 885.787,1468.37 887.251,1465.97 888.689,1463.57 890.101,1461.15 891.486,1458.71 892.844,1456.26 894.178,1453.8 895.484,1451.33 896.763,1448.85 898.016,1446.35 899.244,1443.84 900.442,1441.32 901.615,1438.79 902.761,1436.25 903.881,1433.7 904.972,1431.13 906.037,1428.56 907.074,1425.97 908.084,1423.38 909.068,1420.77 910.022,1418.16 "/>
     <polygon id="_460886496" class="fil1" points="1464.07,901.522 2599.96,2037.4 2598.03,2036.01 2596.28,2034.46 2594.72,2032.76 1458.84,896.878 1460.4,898.573 1462.15,900.126 "/>
     <polygon id="_460886472" class="fil1" points="1542.24,717.676 2678.12,1853.56 2573.13,2015.24 1437.24,879.355 "/>
     <polygon id="_460886448" class="fil1" points="1496.25,894.686 2632.13,2030.57 2630.73,2032.5 2629.18,2034.24 2627.48,2035.8 2625.66,2037.16 2623.74,2038.34 2621.72,2039.31 2619.62,2040.08 2617.46,2040.65 2615.26,2041.01 2613.02,2041.16 2610.78,2041.09 2608.54,2040.8 2606.33,2040.29 2604.14,2039.56 2602.02,2038.6 2599.96,2037.4 1464.07,901.522 1466.13,902.716 1468.26,903.679 1470.44,904.412 1472.66,904.92 1474.9,905.206 1477.14,905.273 1479.37,905.127 1481.58,904.766 1483.73,904.2 1485.83,903.427 1487.85,902.454 1489.78,901.282 1491.6,899.917 1493.3,898.359 1494.85,896.614 "/>
     <polygon id="_460886424" class="fil1" points="1437.24,879.355 2573.13,2015.24 2571.73,2017.17 2570.18,2018.91 2568.48,2020.47 2566.66,2021.83 2564.73,2023.01 2562.71,2023.98 2560.61,2024.75 2558.45,2025.32 2556.25,2025.68 2554.02,2025.82 2551.78,2025.76 2549.54,2025.47 2547.32,2024.96 2545.14,2024.23 2543.01,2023.27 2540.95,2022.07 1405.07,886.19 1407.13,887.384 1409.26,888.347 1411.44,889.08 1413.66,889.588 1415.9,889.875 1418.14,889.942 1420.37,889.795 1422.57,889.436 1424.73,888.869 1426.83,888.096 1428.85,887.123 1430.78,885.951 1432.6,884.585 1434.3,883.028 1435.85,881.284 "/>
     <polygon id="_460886400" class="fil1" points="1522.24,642.452 2658.12,1778.33 2454.27,2092.24 1318.39,956.355 "/>
     <polygon id="_460886376" class="fil1" points="1580.24,765.343 2716.13,1901.23 2632.13,2030.57 1496.25,894.686 "/>
     <polygon id="_460886352" class="fil1" points="1540.63,690.146 2676.51,1826.03 2677.88,1827.85 2679.05,1829.78 2680.02,1831.8 2680.8,1833.9 2681.37,1836.06 2681.72,1838.26 2681.87,1840.49 2681.8,1842.73 2681.52,1844.97 2681.01,1847.19 2680.28,1849.37 2679.31,1851.5 2678.12,1853.56 1542.24,717.676 1543.43,715.616 1544.4,713.488 1545.13,711.306 1545.64,709.088 1545.92,706.85 1545.99,704.607 1545.84,702.376 1545.48,700.173 1544.92,698.014 1544.14,695.917 1543.17,693.895 1542,691.966 "/>
     <polygon id="_460886328" class="fil1" points="1578.64,737.813 2714.52,1873.7 2715.89,1875.52 2717.06,1877.44 2718.03,1879.47 2718.8,1881.56 2719.37,1883.72 2719.73,1885.93 2719.88,1888.16 2719.81,1890.4 2719.52,1892.64 2719.02,1894.86 2718.28,1897.04 2717.32,1899.17 2716.13,1901.23 1580.24,765.343 1581.44,763.283 1582.4,761.155 1583.13,758.973 1583.64,756.755 1583.93,754.517 1584,752.274 1583.85,750.043 1583.49,747.84 1582.92,745.681 1582.15,743.584 1581.18,741.562 1580,739.633 "/>
     <polygon id="_460886304" class="fil1" points="1054.68,1325.36 2190.56,2461.24 2190.53,2465.56 2190.46,2469.88 2190.33,2474.19 2190.16,2478.5 2189.94,2482.8 2189.67,2487.09 2189.35,2491.38 2188.98,2495.66 2188.56,2499.93 2188.1,2504.2 2187.58,2508.45 2187.02,2512.7 2186.41,2516.94 2185.75,2521.17 2185.04,2525.39 2184.29,2529.6 2183.49,2533.8 2182.64,2537.99 2181.75,2542.17 2180.81,2546.34 2179.82,2550.49 2178.78,2554.63 2177.7,2558.76 2176.57,2562.88 2175.4,2566.98 2174.18,2571.07 2172.91,2575.14 2171.6,2579.2 2170.24,2583.25 2168.84,2587.28 2167.39,2591.29 2165.9,2595.29 1030.02,1459.41 1031.51,1455.41 1032.96,1451.4 1034.36,1447.37 1035.72,1443.32 1037.03,1439.26 1038.3,1435.19 1039.52,1431.1 1040.69,1427 1041.82,1422.88 1042.9,1418.75 1043.94,1414.61 1044.93,1410.45 1045.87,1406.29 1046.76,1402.11 1047.61,1397.92 1048.41,1393.72 1049.16,1389.51 1049.87,1385.29 1050.53,1381.06 1051.14,1376.82 1051.7,1372.57 1052.21,1368.31 1052.68,1364.05 1053.1,1359.77 1053.47,1355.49 1053.79,1351.21 1054.06,1346.91 1054.28,1342.61 1054.45,1338.31 1054.58,1334 1054.65,1329.68 "/>
     <polygon id="_460886280" class="fil1" points="1144.59,1438.01 2280.48,2573.89 2278.13,2573.83 2275.81,2573.65 2273.53,2573.36 2271.28,2572.96 2269.07,2572.45 2266.91,2571.83 2264.78,2571.11 2262.71,2570.29 2260.69,2569.37 2258.72,2568.36 2256.8,2567.26 2254.95,2566.07 2253.16,2564.79 2251.43,2563.43 2249.77,2562 1113.89,1426.11 1115.55,1427.55 1117.28,1428.91 1119.07,1430.18 1120.92,1431.38 1122.84,1432.48 1124.81,1433.49 1126.83,1434.41 1128.9,1435.23 1131.02,1435.95 1133.19,1436.56 1135.4,1437.08 1137.65,1437.48 1139.93,1437.77 1142.25,1437.95 "/>
     <polygon id="_460886256" class="fil1" points="1208.97,1438.01 2344.85,2573.89 2280.48,2573.89 1144.59,1438.01 "/>
     <polygon id="_460886232" class="fil1" points="776.61,1405.02 1912.49,2540.9 1910.7,2539.34 774.82,1403.46 "/>
     <polygon id="_460886208" class="fil1" points="1030.02,1459.41 2165.9,2595.29 2164.36,2599.27 2162.78,2603.24 2161.15,2607.19 2159.47,2611.11 2157.76,2615.02 2156,2618.91 2154.19,2622.79 2152.34,2626.64 2150.45,2630.47 2148.51,2634.28 2146.53,2638.06 2144.51,2641.83 2142.44,2645.58 2140.34,2649.3 2138.19,2653 2135.99,2656.67 2133.76,2660.32 2131.48,2663.95 2129.16,2667.56 2126.79,2671.13 2124.39,2674.69 2121.94,2678.22 2119.45,2681.72 2116.93,2685.2 2114.35,2688.64 2111.74,2692.07 2109.09,2695.46 2106.4,2698.83 2103.66,2702.17 2100.89,2705.48 2098.07,2708.76 2095.22,2712.01 959.338,1576.12 962.193,1572.87 965.007,1569.59 967.782,1566.28 970.516,1562.95 973.209,1559.58 975.862,1556.18 978.473,1552.76 981.044,1549.31 983.573,1545.84 986.061,1542.33 988.507,1538.81 990.911,1535.25 993.275,1531.67 995.596,1528.07 997.874,1524.44 1000.11,1520.79 1002.3,1517.11 1004.46,1513.41 1006.56,1509.69 1008.63,1505.95 1010.65,1502.18 1012.63,1498.39 1014.57,1494.58 1016.46,1490.75 1018.31,1486.9 1020.11,1483.03 1021.88,1479.14 1023.59,1475.23 1025.27,1471.3 1026.89,1467.35 1028.48,1463.39 "/>
     <polygon id="_460886184" class="fil1" points="867.986,1493.74 2003.87,2629.63 2002.3,2631.42 2000.59,2633.01 1998.76,2634.4 1996.83,2635.59 1994.8,2636.58 1992.7,2637.36 1990.54,2637.93 1988.34,2638.3 1986.12,2638.45 1983.89,2638.39 1981.66,2638.12 1979.46,2637.63 1977.3,2636.92 1975.2,2635.99 1973.17,2634.83 1971.24,2633.45 835.354,1497.57 837.292,1498.95 839.32,1500.1 841.423,1501.03 843.582,1501.74 845.782,1502.24 848.006,1502.51 850.238,1502.57 852.462,1502.42 854.662,1502.05 856.821,1501.48 858.921,1500.69 860.948,1499.71 862.883,1498.52 864.713,1497.13 866.42,1495.53 "/>
     <polygon id="_460886160" class="fil1" points="959.338,1576.12 2095.22,2712.01 2093.55,2713.71 2091.74,2715.2 2089.83,2716.49 2087.82,2717.57 2085.73,2718.43 2083.58,2719.09 2081.39,2719.54 2079.16,2719.78 2076.93,2719.8 2074.7,2719.61 2072.48,2719.2 2070.31,2718.58 2068.19,2717.74 2066.14,2716.69 2064.18,2715.41 2062.32,2713.92 926.435,1578.04 928.295,1579.53 930.258,1580.81 932.309,1581.86 934.429,1582.7 936.603,1583.32 938.814,1583.73 941.046,1583.92 943.283,1583.89 945.507,1583.66 947.702,1583.21 949.852,1582.55 951.939,1581.68 953.948,1580.6 955.862,1579.32 957.665,1577.82 "/>
     <polygon id="_460886136" class="fil1" points="1559.88,1235.32 2695.76,2371.21 2697.37,2372.98 2698.75,2374.87 2699.93,2376.85 2700.89,2378.92 2701.64,2381.06 2702.17,2383.25 2702.49,2385.47 2702.6,2387.7 2702.49,2389.94 2702.17,2392.16 2701.64,2394.35 2700.89,2396.48 2699.93,2398.55 2698.75,2400.54 2697.37,2402.43 2695.76,2404.2 1559.88,1268.32 1561.48,1266.55 1562.87,1264.66 1564.05,1262.67 1565.01,1260.6 1565.76,1258.46 1566.29,1256.28 1566.61,1254.06 1566.72,1251.82 1566.61,1249.58 1566.29,1247.36 1565.76,1245.18 1565.01,1243.04 1564.05,1240.97 1562.87,1238.98 1561.48,1237.09 "/>
     <polygon id="_460886112" class="fil1" points="1559.88,1268.32 2695.76,2404.2 2644.8,2455.17 1508.92,1319.28 "/>
     <polygon id="_460886088" class="fil1" points="1559.88,1370.25 2695.76,2506.13 2697.37,2507.91 2698.75,2509.79 2699.93,2511.78 2700.89,2513.85 2701.64,2515.99 2702.17,2518.17 2702.49,2520.39 2702.6,2522.63 2702.49,2524.87 2702.17,2527.09 2701.64,2529.27 2700.89,2531.41 2699.93,2533.48 2698.75,2535.47 2697.37,2537.36 2695.76,2539.13 1559.88,1403.25 1561.48,1401.47 1562.87,1399.59 1564.05,1397.6 1565.01,1395.53 1565.76,1393.39 1566.29,1391.2 1566.61,1388.98 1566.72,1386.75 1566.61,1384.51 1566.29,1382.29 1565.76,1380.1 1565.01,1377.97 1564.05,1375.9 1562.87,1373.91 1561.48,1372.02 "/>
     <polygon id="_460883040" class="fil1" points="1442.93,1319.28 2578.81,2455.17 2527.84,2404.2 1391.96,1268.32 "/>
     <polygon id="_460887144" class="fil1" points="1526.89,1403.25 2662.77,2539.13 2611.8,2488.16 1475.92,1352.28 "/>
     <polygon id="_460887888" class="fil1" points="1475.92,1352.28 2611.8,2488.16 2560.84,2539.13 1424.96,1403.25 "/>
     <polygon id="_460887288" class="fil1" points="1424.96,1403.25 2560.84,2539.13 2559.07,2540.73 2557.18,2542.12 2555.19,2543.29 2553.12,2544.25 2550.98,2545 2548.8,2545.53 2546.58,2545.85 2544.34,2545.96 2542.1,2545.85 2539.88,2545.53 2537.7,2545 2535.56,2544.25 2533.49,2543.29 2531.5,2542.12 2529.61,2540.73 2527.84,2539.13 1391.96,1403.25 1393.73,1404.85 1395.62,1406.23 1397.61,1407.41 1399.68,1408.37 1401.82,1409.12 1404,1409.65 1406.22,1409.97 1408.46,1410.08 1410.69,1409.97 1412.91,1409.65 1415.1,1409.12 1417.24,1408.37 1419.31,1407.41 1421.3,1406.23 1423.18,1404.85 "/>
     <polygon id="_460887336" class="fil1" points="1559.88,1403.25 2695.76,2539.13 2693.99,2540.73 2692.1,2542.12 2690.12,2543.29 2688.05,2544.25 2685.91,2545 2683.72,2545.53 2681.5,2545.85 2679.27,2545.96 2677.03,2545.85 2674.81,2545.53 2672.62,2545 2670.49,2544.25 2668.42,2543.29 2666.43,2542.12 2664.54,2540.73 2662.77,2539.13 1526.89,1403.25 1528.66,1404.85 1530.55,1406.23 1532.54,1407.41 1534.61,1408.37 1536.74,1409.12 1538.93,1409.65 1541.15,1409.97 1543.39,1410.08 1545.62,1409.97 1547.84,1409.65 1550.03,1409.12 1552.16,1408.37 1554.24,1407.41 1556.22,1406.23 1558.11,1404.85 "/>
    </g>
    <path id="_466411960" class="fil1" d="M1345.28 493.076l168.47 109.404c6.71103,4.363 11.0185,11.0185 12.5528,18.2303 1.52599,7.20001 0.298819,15.0272 -4.06063,21.7406l-203.851 313.903c-4.36063,6.70867 -11.0173,11.0185 -18.2303,12.5528 -7.19882,1.52599 -15.0272,0.298819 -21.7394,-4.06063l-168.47 -109.406c-6.71103,-4.35827 -11.0232,-11.0185 -12.5528,-18.2291 -1.53071,-7.20119 -0.296457,-15.026 4.06063,-21.7406l203.851 -313.903c4.35945,-6.71221 11.0173,-11.0197 18.2303,-12.5528 7.19764,-1.52717 15.0272,-0.298819 21.7394,4.06063zm-77.8914 46.1091l-104.995 161.679c-6.99686,10.7717 -21.4028,13.8319 -32.1744,6.83504 -10.7717,-6.99686 -13.8319,-21.4028 -6.83504,-32.1744l104.994 -161.678c6.99686,-10.7728 21.4028,-13.8319 32.1744,-6.83623 10.7728,6.99686 13.8319,21.4028 6.83623,32.1744zm-270.037 195.644c0,46.1103 -8.48741,91.4989 -24.6567,134.046 -16.1823,42.5847 -40.0122,82.1989 -70.6796,116.719 -8.55709,9.61418 -23.2902,10.4705 -32.9044,1.91339 -9.61418,-8.55709 -10.4705,-23.2902 -1.91339,-32.9044 26.9303,-30.313 47.8087,-64.9749 61.93,-102.135 14.1366,-37.1965 21.5563,-77.0268 21.5563,-117.639 0,-43.2485 -8.44607,-85.6111 -24.4347,-124.869 -16.0099,-39.3083 -39.5504,-75.5174 -69.7146,-106.406 -8.95867,-9.21142 -8.75552,-23.9445 0.455906,-32.9032 9.21261,-8.95985 23.9457,-8.75552 32.9044,0.455906 34.4587,35.2866 61.3229,76.5804 79.5579,121.352 18.2551,44.8217 27.8988,93.1229 27.8988,142.369zm-487.657 465.695l64.376 0 0.669686 0 0.152362 -0.121654 112.523 -90.0957 21.8858 -17.5205 16.0311 -12.8374 0 21.6059 0 26.8902 0 190.59 0 0.230315 0 190.818 0 48.4985 -37.917 -30.3603 -112.673 -90.2138 -0.475985 0 -0.196063 0 -64.376 0c-12.5906,0 -24.0201,-5.13544 -32.289,-13.4055 -8.27009,-8.27009 -13.4055,-19.7008 -13.4055,-32.289l0 -73.0477 0 -0.602363 0 -72.4442c0,-12.5894 5.13544,-24.0189 13.4043,-32.2902 8.27127,-8.2689 19.702,-13.4043 32.2902,-13.4043zm215.638 -689.519l0 26.8914 0 190.589 0 0.231496 0 190.818 0 48.4973 -37.917 -30.3591 -112.673 -90.215 -0.475985 0 -0.196063 0 -64.376 0c-12.5906,0 -24.0201,-5.13426 -32.289,-13.4043 -8.27009,-8.27127 -13.4055,-19.702 -13.4055,-32.2902l0 -73.0465 0 -0.602363 0 -72.4453c0,-12.5882 5.13544,-24.0189 13.4043,-32.2902 8.27127,-8.2689 19.702,-13.4032 32.2902,-13.4032l64.376 0 0.669686 0 0.152362 -0.122835 112.523 -90.0946 21.8858 -17.5217 16.0311 -12.8374 0 21.6059zm147.562 313.999c-9.75119,28.0406 -24.2126,54.5067 -42.9662,78.2091 -7.95355,10.0677 -22.5626,11.7815 -32.6303,3.82796 -10.0677,-7.95355 -11.7815,-22.5638 -3.82796,-32.6315 15.4441,-19.5201 27.3898,-41.4213 35.4922,-64.7186 8.02678,-23.0835 12.2114,-47.6528 12.2114,-72.7288 0,-28.5012 -5.40709,-56.3162 -15.6602,-82.0442 -10.2744,-25.7776 -25.4504,-49.6642 -44.9658,-70.2567 -8.85946,-9.313 -8.49213,-24.0449 0.819686,-32.9044 9.313,-8.85946 24.0449,-8.49213 32.9044,0.819686 23.5677,24.8693 41.9433,53.8394 54.4453,85.2072 12.5221,31.4185 19.1244,65.0469 19.1244,99.1784 0,30.0414 -5.12126,59.7886 -14.9469,88.0418zm662.509 -139.502c10.7728,6.99686 13.8319,21.4028 6.83623,32.1744l-104.994 161.679c-6.99686,10.7717 -21.4028,13.8319 -32.1744,6.83504 -10.7728,-6.99686 -13.8319,-21.4028 -6.83623,-32.1744l104.994 -161.678c6.99686,-10.7728 21.4028,-13.8319 32.1744,-6.83623zm-390.808 515.022l64.376 0 0.669686 0 0.152362 -0.121654 112.523 -90.0957 21.8858 -17.5205 16.0311 -12.8374 0 21.6059 0 26.8902 0 190.59 0 0.230315 0 190.818 0 48.4985 -37.917 -30.3603 -112.673 -90.2138 -0.474804 0 -0.197244 0 -64.376 0c-12.5906,0 -24.0201,-5.13544 -32.289,-13.4055 -8.27009,-8.27009 -13.4043,-19.7008 -13.4043,-32.289l0 -73.0477 0 -0.602363 0 -72.4442c0,-12.5894 5.13426,-24.0189 13.4032,-32.2902 8.27127,-8.2689 19.702,-13.4043 32.2902,-13.4043zm-114.575 258.881c-16.1835,42.5847 -40.0134,82.2001 -70.6808,116.719 -8.55709,9.61418 -23.289,10.4705 -32.9032,1.91339 -9.61418,-8.55709 -10.4705,-23.2902 -1.91339,-32.9032 26.9303,-30.313 47.8087,-64.976 61.93,-102.135 14.1366,-37.1977 21.5563,-77.028 21.5563,-117.64 0,-43.2485 -8.44607,-85.6111 -24.4358,-124.869 -16.0087,-39.3083 -39.5481,-75.5162 -69.7134,-106.404 -8.95985,-9.21261 -8.75552,-23.9445 0.455906,-32.9044 9.21142,-8.95867 23.9445,-8.75552 32.9044,0.455906 34.4599,35.2878 61.3229,76.5816 79.5579,121.352 18.2551,44.8229 27.8988,93.1253 27.8988,142.369 0,46.1115 -8.48741,91.4989 -24.6567,134.046zm-119.068 -43.8721c-9.75001,28.0406 -24.2103,54.5067 -42.965,78.2103 -7.95355,10.0677 -22.5638,11.7815 -32.6315,3.82796 -10.0677,-7.95355 -11.7815,-22.5626 -3.82796,-32.6303 15.4453,-19.5213 27.391,-41.4237 35.4922,-64.7197 8.02678,-23.0835 12.2114,-47.6528 12.2114,-72.7288 0,-28.5012 -5.40709,-56.3162 -15.6602,-82.043 -10.2744,-25.7799 -25.4504,-49.6666 -44.9658,-70.2579 -8.85946,-9.313 -8.49213,-24.0449 0.819686,-32.9044 9.313,-8.85946 24.0449,-8.49213 32.9044,0.819686 23.5666,24.8669 41.9433,53.8394 54.4453,85.2072 12.5221,31.4185 19.1244,65.0481 19.1244,99.1784 0,30.0414 -5.12126,59.7874 -14.9469,88.0406zm258.423 -917.018c6.99567,-10.7717 21.4016,-13.8319 32.1744,-6.83504 10.7717,6.99686 13.8319,21.4016 6.83504,32.1744l-83.9953 129.343c-6.99686,10.7717 -21.4028,13.8319 -32.1744,6.83504 -10.7728,-6.99686 -13.8319,-21.4016 -6.83623,-32.1744l83.9965 -129.343zm404.034 234.653c10.7728,6.99686 13.8331,21.4028 6.83623,32.1744l-83.9965 129.343c-6.99567,10.7728 -21.4016,13.8319 -32.1733,6.83623 -10.7728,-6.99686 -13.8331,-21.4028 -6.83623,-32.1744l83.9965 -129.343c6.99567,-10.7728 21.4016,-13.8319 32.1733,-6.83623zm-804.468 501.67c9.313,-8.85946 24.0449,-8.49213 32.9044,0.819686 11.113,11.7272 19.7917,25.4209 25.7114,40.2697 5.93859,14.9008 9.06969,30.7701 9.06969,46.7977 0,14.1095 -2.43189,28.1563 -7.09607,41.5701 -4.59095,13.2012 -11.4201,25.689 -20.2878,36.8977 -7.95355,10.0677 -22.5638,11.7815 -32.6315,3.82796 -10.0677,-7.95355 -11.7815,-22.5638 -3.82796,-32.6303 5.55945,-7.02756 9.87284,-14.9492 12.8138,-23.4083 2.86654,-8.24292 4.36181,-17.113 4.36181,-26.2571 0,-10.3984 -1.93583,-20.4532 -5.60552,-29.6622 -3.69213,-9.25985 -9.17009,-17.8701 -16.2319,-25.3205 -8.85946,-9.313 -8.49213,-24.0449 0.819686,-32.9044zm623.021 0.484252c9.11103,-9.11103 23.8843,-9.11103 32.9953,0l50.9658 50.9658 50.9658 -50.9658c9.11103,-9.11103 23.8843,-9.11103 32.9953,0 9.11103,9.11103 9.11103,23.8843 0,32.9953l-50.9658 50.9658 50.9658 50.967c9.11103,9.10985 9.11103,23.8843 0,32.9941 -9.11103,9.11103 -23.8843,9.11103 -32.9953,0l-50.9658 -50.9658 -50.9658 50.9658c-9.11103,9.11103 -23.8843,9.11103 -32.9953,0 -9.11103,-9.10985 -9.11103,-23.8843 0,-32.9941l50.967 -50.967 -50.967 -50.9658c-9.11103,-9.11103 -9.11103,-23.8843 0,-32.9953z"/>
   </g>
  </g>
  <path class="fil2" d="M1024 -0.0011811c565.541,0 1024,458.461 1024,1024 0,565.541 -458.461,1024 -1024,1024 -565.541,0 -1024,-458.461 -1024,-1024 0,-565.541 458.461,-1024 1024,-1024z"/>
  <path class="fil3" d="M1144.59 1200.52l65.0457 0 112.675 -90.2174 37.917 -30.3579 0 48.4961 0 190.59 0 0.230315 0 190.818 0 48.4985 -37.917 -30.3603 -112.673 -90.2138 -65.0481 0c-12.5906,0 -24.0201,-5.13544 -32.289,-13.4055 -8.27009,-8.27009 -13.4043,-19.7008 -13.4043,-32.289l0 -73.0477 0 -0.602363 0 -72.4442c0,-12.5894 5.13426,-24.0189 13.4032,-32.2902 8.27127,-8.2689 19.702,-13.4043 32.2902,-13.4043z"/>
  <path class="fil4" d="M1360.23 1319.27l0 190.818 0 48.4985 -37.917 -30.3603 -112.673 -90.2138 -65.0481 0c-12.5906,0 -24.0201,-5.13544 -32.289,-13.4055 -8.27009,-8.27009 -13.4043,-19.7008 -13.4043,-32.289l0 -73.0477 261.331 0z"/>
  <polygon class="fil5" points="1360.23,1319.27 1360.23,1510.08 1360.23,1558.58 1322.31,1528.22 1209.64,1438.01 1209.17,1438.01 1208.97,1438.01 1208.97,1319.27 "/>
  <path class="fil6" d="M1208.97 1200.52l0.669686 0 0.152362 -0.121654 112.523 -90.0957 21.8858 -17.5205c5.34331,-4.28032 10.6878,-8.55827 16.0311,-12.8374l0 21.6059 0 26.8902 0 190.59 0 0.230315 -151.262 0 0 -0.445276 0 -118.296z"/>
  <path class="fil7" d="M1345.28 493.076l168.47 109.404c6.71103,4.363 11.0185,11.0185 12.5528,18.2303 1.52599,7.20001 0.298819,15.0272 -4.06063,21.7406l-203.851 313.903c-4.36063,6.70867 -11.0173,11.0185 -18.2303,12.5528 -7.19882,1.52599 -15.0272,0.298819 -21.7394,-4.06063l-168.47 -109.406c-6.71103,-4.35827 -11.0232,-11.0185 -12.5528,-18.2291 -1.53071,-7.20119 -0.296457,-15.026 4.06063,-21.7406l203.851 -313.903c4.35945,-6.71221 11.0173,-11.0197 18.2303,-12.5528 7.19764,-1.52717 15.0272,-0.298819 21.7394,4.06063zm128.354 138.819l-138.911 -90.2091 -157.492 242.516 138.91 90.2091 157.493 -242.516zm-256.81 205.434l35.9433 23.3421 -23.341 35.9445 -35.9457 -23.3433 23.3433 -35.9433z"/>
  <path class="fil3" d="M509.693 609.976l65.0457 0 112.675 -90.2174 37.917 -30.3591 0 48.4973 0 190.589 0 0.231496 0 190.818 0 48.4973 -37.917 -30.3591 -112.673 -90.215 -65.0481 0c-12.5906,0 -24.0201,-5.13426 -32.289,-13.4043 -8.27009,-8.27127 -13.4055,-19.702 -13.4055,-32.2902l0 -73.0465 0 -0.602363 0 -72.4453c0,-12.5882 5.13544,-24.0189 13.4043,-32.2902 8.27127,-8.2689 19.702,-13.4032 32.2902,-13.4032z"/>
  <path class="fil4" d="M725.331 728.717l0 190.818 0 48.4973 -37.917 -30.3591 -112.673 -90.215 -65.0481 0c-12.5906,0 -24.0201,-5.13426 -32.289,-13.4043 -8.27009,-8.27127 -13.4055,-19.702 -13.4055,-32.2902l0 -73.0465 261.332 0z"/>
  <polygon class="fil5" points="725.331,728.717 725.331,919.535 725.331,968.032 687.414,937.673 574.741,847.458 574.265,847.458 574.069,847.458 574.069,728.717 "/>
  <path class="fil6" d="M574.069 609.976l0.669686 0 0.152362 -0.122835 112.523 -90.0946 21.8858 -17.5217c5.34331,-4.27914 10.6878,-8.55827 16.0311,-12.8374l0 21.6059 0 26.8914 0 190.589 0 0.231496 -151.262 0 0 -0.445276 0 -118.296z"/>
  <path class="fil8" d="M902.014 985.594c-8.55709,9.61418 -23.2902,10.4705 -32.9044,1.91339 -9.61418,-8.55709 -10.4705,-23.2902 -1.91339,-32.9044 26.9303,-30.313 47.8087,-64.9749 61.93,-102.135 14.1366,-37.1965 21.5563,-77.0268 21.5563,-117.639 0,-43.2485 -8.44607,-85.6111 -24.4347,-124.869 -16.0099,-39.3083 -39.5504,-75.5174 -69.7146,-106.406 -8.95867,-9.21142 -8.75552,-23.9445 0.455906,-32.9032 9.21261,-8.95985 23.9457,-8.75552 32.9044,0.455906 34.4587,35.2866 61.3229,76.5804 79.5579,121.352 18.2551,44.8217 27.8988,93.1229 27.8988,142.369 0,46.1103 -8.48741,91.4989 -24.6567,134.046 -16.1823,42.5847 -40.0122,82.1989 -70.6796,116.719z"/>
  <path class="fil9" d="M829.927 903.213c-7.95355,10.0677 -22.5626,11.7815 -32.6303,3.82796 -10.0677,-7.95355 -11.7815,-22.5638 -3.82796,-32.6315 15.4441,-19.5201 27.3898,-41.4213 35.4922,-64.7186 8.02678,-23.0835 12.2114,-47.6528 12.2114,-72.7288 0,-28.5012 -5.40709,-56.3162 -15.6602,-82.0442 -10.2744,-25.7776 -25.4504,-49.6642 -44.9658,-70.2567 -8.85946,-9.313 -8.49213,-24.0449 0.819686,-32.9044 9.313,-8.85946 24.0449,-8.49213 32.9044,0.819686 23.5677,24.8693 41.9433,53.8394 54.4453,85.2072 12.5221,31.4185 19.1244,65.0469 19.1244,99.1784 0,30.0414 -5.12126,59.7886 -14.9469,88.0418 -9.75119,28.0406 -24.2126,54.5067 -42.9662,78.2091z"/>
  <path class="fil3" d="M509.693 1200.52l65.0457 0 112.675 -90.2174 37.917 -30.3579 0 48.4961 0 190.59 0 0.230315 0 190.818 0 48.4985 -37.917 -30.3603 -112.673 -90.2138 -65.0481 0c-12.5906,0 -24.0201,-5.13544 -32.289,-13.4055 -8.27009,-8.27009 -13.4055,-19.7008 -13.4055,-32.289l0 -73.0477 0 -0.602363 0 -72.4442c0,-12.5894 5.13544,-24.0189 13.4043,-32.2902 8.27127,-8.2689 19.702,-13.4043 32.2902,-13.4043z"/>
  <path class="fil4" d="M725.331 1319.27l0 190.818 0 48.4985 -37.917 -30.3603 -112.673 -90.2138 -65.0481 0c-12.5906,0 -24.0201,-5.13544 -32.289,-13.4055 -8.27009,-8.27009 -13.4055,-19.7008 -13.4055,-32.289l0 -73.0477 261.332 0z"/>
  <polygon class="fil5" points="725.331,1319.27 725.331,1510.08 725.331,1558.58 687.414,1528.22 574.741,1438.01 574.265,1438.01 574.069,1438.01 574.069,1319.27 "/>
  <path class="fil6" d="M574.069 1200.52l0.669686 0 0.152362 -0.121654 112.523 -90.0957 21.8858 -17.5205c5.34331,-4.28032 10.6878,-8.55827 16.0311,-12.8374l0 21.6059 0 26.8902 0 190.59 0 0.230315 -151.262 0 0 -0.445276 0 -118.296z"/>
  <path class="fil6" d="M1391.96 1268.32c-9.11103,-9.11103 -9.11103,-23.8843 0,-32.9953 9.11103,-9.11103 23.8843,-9.11103 32.9953,0l50.9658 50.9658 50.9658 -50.9658c9.11103,-9.11103 23.8843,-9.11103 32.9953,0 9.11103,9.11103 9.11103,23.8843 0,32.9953l-50.9658 50.9658 50.9658 50.967c9.11103,9.10985 9.11103,23.8843 0,32.9941 -9.11103,9.11103 -23.8843,9.11103 -32.9953,0l-50.9658 -50.9658 -50.9658 50.9658c-9.11103,9.11103 -23.8843,9.11103 -32.9953,0 -9.11103,-9.10985 -9.11103,-23.8843 0,-32.9941l50.967 -50.967 -50.967 -50.9658z"/>
  <path class="fil8" d="M959.338 1576.12c-8.55709,9.61418 -23.289,10.4705 -32.9032,1.91339 -9.61418,-8.55709 -10.4705,-23.2902 -1.91339,-32.9032 26.9303,-30.313 47.8087,-64.976 61.93,-102.135 14.1366,-37.1977 21.5563,-77.028 21.5563,-117.64 0,-43.2485 -8.44607,-85.6111 -24.4358,-124.869 -16.0087,-39.3083 -39.5481,-75.5162 -69.7134,-106.404 -8.95985,-9.21261 -8.75552,-23.9445 0.455906,-32.9044 9.21142,-8.95867 23.9445,-8.75552 32.9044,0.455906 34.4599,35.2878 61.3229,76.5816 79.5579,121.352 18.2551,44.8229 27.8988,93.1253 27.8988,142.369 0,46.1115 -8.48741,91.4989 -24.6567,134.046 -16.1835,42.5847 -40.0134,82.2001 -70.6808,116.719z"/>
  <path class="fil9" d="M867.986 1493.74c-7.95355,10.0677 -22.5638,11.7815 -32.6315,3.82796 -10.0677,-7.95355 -11.7815,-22.5626 -3.82796,-32.6303 15.4453,-19.5213 27.391,-41.4237 35.4922,-64.7197 8.02678,-23.0835 12.2114,-47.6528 12.2114,-72.7288 0,-28.5012 -5.40709,-56.3162 -15.6602,-82.043 -10.2744,-25.7799 -25.4504,-49.6666 -44.9658,-70.2579 -8.85946,-9.313 -8.49213,-24.0449 0.819686,-32.9044 9.313,-8.85946 24.0449,-8.49213 32.9044,0.819686 23.5666,24.8669 41.9433,53.8394 54.4453,85.2072 12.5221,31.4185 19.1244,65.0481 19.1244,99.1784 0,30.0414 -5.12126,59.7874 -14.9469,88.0406 -9.75001,28.0406 -24.2103,54.5067 -42.965,78.2103z"/>
  <path class="fil10" d="M809.241 1401.19c-7.95355,10.0677 -22.5638,11.7815 -32.6315,3.82796 -10.0677,-7.95355 -11.7815,-22.5638 -3.82796,-32.6303 5.55945,-7.02756 9.87284,-14.9492 12.8138,-23.4083 2.86654,-8.24292 4.36181,-17.113 4.36181,-26.2571 0,-10.3984 -1.93583,-20.4532 -5.60552,-29.6622 -3.69213,-9.25985 -9.17009,-17.8701 -16.2319,-25.3205 -8.85946,-9.313 -8.49213,-24.0449 0.819686,-32.9044 9.313,-8.85946 24.0449,-8.49213 32.9044,0.819686 11.113,11.7272 19.7917,25.4209 25.7114,40.2697 5.93859,14.9008 9.06969,30.7701 9.06969,46.7977 0,14.1095 -2.43189,28.1563 -7.09607,41.5701 -4.59095,13.2012 -11.4201,25.689 -20.2878,36.8977z"/>
  <path class="fil3" d="M1228.38 513.847c6.99686,-10.7728 21.4028,-13.8319 32.1744,-6.83623 10.7728,6.99686 13.8319,21.4028 6.83623,32.1744l-104.995 161.679c-6.99686,10.7717 -21.4028,13.8319 -32.1744,6.83504 -10.7717,-6.99686 -13.8319,-21.4028 -6.83504,-32.1744l104.994 -161.678z"/>
  <path class="fil3" d="M1169.37 498.515c6.99567,-10.7717 21.4016,-13.8319 32.1744,-6.83504 10.7717,6.99686 13.8319,21.4016 6.83504,32.1744l-83.9953 129.343c-6.99686,10.7717 -21.4028,13.8319 -32.1744,6.83504 -10.7728,-6.99686 -13.8319,-21.4016 -6.83623,-32.1744l83.9965 -129.343z"/>
  <path class="fil3" d="M1503.23 692.338c6.99686,-10.7728 21.4028,-13.8319 32.1744,-6.83623 10.7728,6.99686 13.8319,21.4028 6.83623,32.1744l-104.994 161.679c-6.99686,10.7717 -21.4028,13.8319 -32.1744,6.83504 -10.7728,-6.99686 -13.8319,-21.4028 -6.83623,-32.1744l104.994 -161.678z"/>
  <path class="fil3" d="M1541.23 740.005c6.99567,-10.7728 21.4016,-13.8319 32.1733,-6.83623 10.7728,6.99686 13.8331,21.4028 6.83623,32.1744l-83.9965 129.343c-6.99567,10.7728 -21.4016,13.8319 -32.1733,6.83623 -10.7728,-6.99686 -13.8331,-21.4028 -6.83623,-32.1744l83.9965 -129.343z"/>
  <polygon class="fil11" points="1334.72,541.686 1177.23,784.202 1316.14,874.411 1473.63,631.895 "/>
  <polygon class="fil12" points="1216.82,837.329 1193.48,873.272 1229.43,896.616 1252.77,860.671 "/>
 </g>
</svg>
