<?xml version="1.0" encoding="UTF-8"?>
<!DOCTYPE svg PUBLIC "-//W3C//DTD SVG 1.1//EN" "http://www.w3.org/Graphics/SVG/1.1/DTD/svg11.dtd">
<!-- Creator: CorelDRAW -->
<svg xmlns="http://www.w3.org/2000/svg" xml:space="preserve" width="6.82666in" height="6.82666in" style="shape-rendering:geometricPrecision; text-rendering:geometricPrecision; image-rendering:optimizeQuality; fill-rule:evenodd; clip-rule:evenodd"
viewBox="0 0 6.82666 6.82666"
 xmlns:xlink="http://www.w3.org/1999/xlink">
 <defs>
  <style type="text/css">
   <![CDATA[
    .fil0 {fill:#424242}
    .fil1 {fill:#FFFFFE;fill-rule:nonzero}
   ]]>
  </style>
 </defs>
 <g id="Layer_x0020_1">
  <metadata id="CorelCorpID_0Corel-Layer"/>
  <rect class="fil0" width="6.82666" height="6.82666" rx="0.853335" ry="0.853335"/>
  <polygon class="fil1" points="3.12889,2.79541 4.69333,2.79541 4.69333,2.95541 3.12889,2.95541 "/>
  <polygon class="fil1" points="3.12889,2.41617 4.69333,2.41617 4.69333,2.57617 3.12889,2.57617 "/>
  <polygon class="fil1" points="2.13332,3.12468 4.69333,3.12468 4.69333,3.28468 2.13332,3.28468 "/>
  <polygon class="fil1" points="2.13332,3.45913 4.69333,3.45913 4.69333,3.61913 2.13332,3.61913 "/>
  <path class="fil1" d="M1.75429 1.66599l3.31807 0c0.0715276,0 0.136488,0.029189 0.183504,0.0762087 0.0470197,0.0470197 0.0762087,0.111976 0.0762087,0.183508l0 2.09981c0,0.0589094 -0.0477598,0.106669 -0.106669,0.106669l-3.62415 0c-0.0589094,0 -0.106669,-0.0477598 -0.106669,-0.106669l0 -2.09981c0,-0.0715276 0.029189,-0.136488 0.0762087,-0.183508 0.0470197,-0.0470197 0.111976,-0.0762087 0.183504,-0.0762087zm3.31807 0.213339l-3.31807 0c-0.0126378,0 -0.0242165,0.00525197 -0.0326693,0.0137047 -0.00845276,0.00845276 -0.0137047,0.0200354 -0.0137047,0.0326732l0 1.99314 3.41081 0 0 -1.99314c0,-0.0126457 -0.00525197,-0.0242205 -0.0137047,-0.0326732 -0.00845276,-0.00845276 -0.0200315,-0.0137047 -0.0326693,-0.0137047z"/>
  <path class="fil1" d="M2.63549 4.94733l1.47809 0 -0.17861 -0.358378 -1.13905 0 -0.160437 0.358378zm3.17149 0.213339l-4.78731 0c-0.0647835,0 -0.142031,-0.0314291 -0.193764,-0.0748386 -0.0203307,-0.0170512 -0.0381299,-0.0369606 -0.0516732,-0.0589055 -0.0174882,-0.0283543 -0.0275709,-0.0592087 -0.0275709,-0.0914685 0,-0.0362598 0.0117402,-0.071185 0.0382992,-0.102839l0.730646 -0.870697c0.0194449,-0.0261378 0.050563,-0.0430709 0.0856417,-0.0430709l3.62415 0 0 7.87402e-006c0.0304213,1.5748e-005 0.060626,0.0129685 0.0817087,0.0380945l-0.0817087 0.0685669 0.0816654 -0.0683346 0.734626 0.875433c0.026563,0.0316535 0.0383071,0.0665984 0.0383071,0.102858 0,0.0322677 -0.0100827,0.0631181 -0.0275709,0.0914606 -0.0135276,0.021937 -0.0313307,0.0418346 -0.0516575,0.0588937 -0.051748,0.0434094 -0.129008,0.0748386 -0.193791,0.0748386z"/>
  <path class="fil1" d="M2.31174 2.49156c-0.050748,0.0286496 -0.0944528,0.0711654 -0.127291,0.123138 -0.0406969,0.0644016 -0.0647874,0.14339 -0.0647874,0.228264l0 0.00638976c0,0.0278504 0.0101693,0.0535709 0.0265512,0.0725709 0.017811,0.0206614 0.0428622,0.0334882 0.0708465,0.0334882l0.690744 0c0.0279882,0 0.0530394,-0.0128268 0.0708504,-0.0334882 0.0163819,-0.019 0.0265512,-0.0447205 0.0265512,-0.0725709l0 -0.00638976c0,-0.0842835 -0.0236969,-0.162697 -0.0637756,-0.226752 -0.032622,-0.0521339 -0.0761299,-0.0948583 -0.126709,-0.123776 -0.0134724,0.0274803 -0.0314016,0.0528031 -0.0544291,0.0750236 -0.137598,0.132768 -0.362618,0.0903976 -0.448551,-0.0758976zm0.250693 0.111579l-9.44882e-005 0 -0.00015748 -3.93701e-006c-0.0530079,-6.69291e-005 -0.116646,-0.0217205 -0.165248,-0.0686181 -0.038815,-0.0374528 -0.0681693,-0.0906535 -0.0750079,-0.16124 -0.000503937,-0.00523228 -0.000901575,-0.0142913 -0.00119685,-0.0240866 -0.000397638,-0.0130827 -0.000637795,-0.0289567 -0.000692913,-0.0365945 -0.000704724,-0.0910669 0.0286929,-0.15048 0.0751378,-0.188213 0.0452047,-0.0367283 0.104413,-0.0502283 0.166413,-0.0514488l-3.93701e-006 -0.000161417c0.00191339,-3.54331e-005 0.00379528,5.11811e-005 0.00564567,0.000255906 0.060563,0.0017126 0.118224,0.0154094 0.162465,0.0513543 0.0464409,0.0377323 0.0758425,0.0971457 0.0751378,0.188213 -5.51181e-005,0.0076378 -0.000295276,0.0235118 -0.000692913,0.0365945 -0.000295276,0.00979528 -0.000692913,0.0188543 -0.00119685,0.0240866 -0.0070315,0.0725984 -0.0340866,0.125846 -0.0726654,0.163071 -0.0450591,0.0434764 -0.104638,0.0636772 -0.165776,0.0666181l3.93701e-006 0.000122047c-0.000692913,3.14961e-005 -0.00138189,4.72441e-005 -0.00207087,4.72441e-005l0 3.93701e-006z"/>
 </g>
</svg>
